<svg width="120" height="120" viewBox="0 0 120 120" fill="none" xmlns="http://www.w3.org/2000/svg">
<path d="M95.8203 60.0332H17.0703C14.9992 60.0332 13.3203 61.7121 13.3203 63.7832V95.6582C13.3203 97.7293 14.9992 99.4082 17.0703 99.4082H95.8203C97.8914 99.4082 99.5703 97.7293 99.5703 95.6582V63.7832C99.5703 61.7121 97.8914 60.0332 95.8203 60.0332Z" fill="#FF3500"/>
<path d="M61.5213 51.2057C61.2876 50.9997 61.0106 50.8488 60.7109 50.7639C60.4111 50.6791 60.0961 50.6625 59.7891 50.7154C59.4821 50.7683 59.1908 50.8893 58.9367 51.0695C58.6826 51.2498 58.4721 51.4847 58.3207 51.757V43.1582C58.3207 42.6609 58.1232 42.184 57.7715 41.8324C57.4199 41.4807 56.943 41.2832 56.4457 41.2832C55.9484 41.2832 55.4715 41.4807 55.1199 41.8324C54.7683 42.184 54.5707 42.6609 54.5707 43.1582V51.757L54.0213 51.2076C53.6677 50.866 53.1941 50.677 52.7025 50.6813C52.2108 50.6856 51.7406 50.8828 51.3929 51.2304C51.0453 51.5781 50.8481 52.0483 50.8438 52.54C50.8395 53.0316 51.0285 53.5052 51.3701 53.8588L55.1201 57.6088C55.4736 57.9567 55.9497 58.1517 56.4457 58.1517C56.9417 58.1517 57.4178 57.9567 57.7713 57.6088L61.5213 53.8588C61.8728 53.5072 62.0703 53.0304 62.0703 52.5332C62.0703 52.036 61.8728 51.5592 61.5213 51.2076V51.2057Z" fill="#FF3500"/>
<path opacity="0.1" d="M54.5703 43.1582H58.3203V46.9082H54.5703V43.1582Z" fill="black"/>
<path d="M95.8203 5.6582H17.0703C14.9992 5.6582 13.3203 7.33714 13.3203 9.4082V41.2832C13.3203 43.3543 14.9992 45.0332 17.0703 45.0332H95.8203C97.8914 45.0332 99.5703 43.3543 99.5703 41.2832V9.4082C99.5703 7.33714 97.8914 5.6582 95.8203 5.6582Z" fill="#FE9000"/>
<path opacity="0.1" d="M54.5703 15.0332H26.4453C25.948 15.0332 25.4711 14.8357 25.1195 14.484C24.7679 14.1324 24.5703 13.6555 24.5703 13.1582C24.5703 12.6609 24.7679 12.184 25.1195 11.8324C25.4711 11.4807 25.948 11.2832 26.4453 11.2832H54.5703C55.0676 11.2832 55.5445 11.4807 55.8961 11.8324C56.2478 12.184 56.4453 12.6609 56.4453 13.1582C56.4453 13.6555 56.2478 14.1324 55.8961 14.484C55.5445 14.8357 55.0676 15.0332 54.5703 15.0332ZM69.5703 24.4082H26.4453C25.948 24.4082 25.4711 24.2107 25.1195 23.859C24.7679 23.5074 24.5703 23.0305 24.5703 22.5332C24.5703 22.0359 24.7679 21.559 25.1195 21.2074C25.4711 20.8557 25.948 20.6582 26.4453 20.6582H69.5703C70.0676 20.6582 70.5445 20.8557 70.8961 21.2074C71.2478 21.559 71.4453 22.0359 71.4453 22.5332C71.4453 23.0305 71.2478 23.5074 70.8961 23.859C70.5445 24.2107 70.0676 24.4082 69.5703 24.4082ZM41.4453 33.7832H26.4453C25.948 33.7832 25.4711 33.5857 25.1195 33.234C24.7679 32.8824 24.5703 32.4055 24.5703 31.9082C24.5703 31.4109 24.7679 30.934 25.1195 30.5824C25.4711 30.2307 25.948 30.0332 26.4453 30.0332H41.4453C41.9426 30.0332 42.4195 30.2307 42.7711 30.5824C43.1228 30.934 43.3203 31.4109 43.3203 31.9082C43.3203 32.4055 43.1228 32.8824 42.7711 33.234C42.4195 33.5857 41.9426 33.7832 41.4453 33.7832ZM54.5703 69.4082H26.4453C25.948 69.4082 25.4711 69.2107 25.1195 68.859C24.7679 68.5074 24.5703 68.0305 24.5703 67.5332C24.5703 67.0359 24.7679 66.559 25.1195 66.2074C25.4711 65.8558 25.948 65.6582 26.4453 65.6582H54.5703C55.0676 65.6582 55.5445 65.8558 55.8961 66.2074C56.2478 66.559 56.4453 67.0359 56.4453 67.5332C56.4453 68.0305 56.2478 68.5074 55.8961 68.859C55.5445 69.2107 55.0676 69.4082 54.5703 69.4082ZM69.5703 78.7832H26.4453C25.948 78.7832 25.4711 78.5857 25.1195 78.234C24.7679 77.8824 24.5703 77.4055 24.5703 76.9082C24.5703 76.4109 24.7679 75.934 25.1195 75.5824C25.4711 75.2307 25.948 75.0332 26.4453 75.0332H69.5703C70.0676 75.0332 70.5445 75.2307 70.8961 75.5824C71.2478 75.934 71.4453 76.4109 71.4453 76.9082C71.4453 77.4055 71.2478 77.8824 70.8961 78.234C70.5445 78.5857 70.0676 78.7832 69.5703 78.7832Z" fill="black"/>
<path d="M54.5703 16.9082H26.4453C25.948 16.9082 25.4711 16.7107 25.1195 16.359C24.7679 16.0074 24.5703 15.5305 24.5703 15.0332C24.5703 14.5359 24.7679 14.059 25.1195 13.7074C25.4711 13.3557 25.948 13.1582 26.4453 13.1582H54.5703C55.0676 13.1582 55.5445 13.3557 55.8961 13.7074C56.2478 14.059 56.4453 14.5359 56.4453 15.0332C56.4453 15.5305 56.2478 16.0074 55.8961 16.359C55.5445 16.7107 55.0676 16.9082 54.5703 16.9082ZM69.5703 26.2832H26.4453C25.948 26.2832 25.4711 26.0857 25.1195 25.734C24.7679 25.3824 24.5703 24.9055 24.5703 24.4082C24.5703 23.9109 24.7679 23.434 25.1195 23.0824C25.4711 22.7307 25.948 22.5332 26.4453 22.5332H69.5703C70.0676 22.5332 70.5445 22.7307 70.8961 23.0824C71.2478 23.434 71.4453 23.9109 71.4453 24.4082C71.4453 24.9055 71.2478 25.3824 70.8961 25.734C70.5445 26.0857 70.0676 26.2832 69.5703 26.2832ZM41.4453 35.6582H26.4453C25.948 35.6582 25.4711 35.4607 25.1195 35.109C24.7679 34.7574 24.5703 34.2805 24.5703 33.7832C24.5703 33.2859 24.7679 32.809 25.1195 32.4574C25.4711 32.1057 25.948 31.9082 26.4453 31.9082H41.4453C41.9426 31.9082 42.4195 32.1057 42.7711 32.4574C43.1228 32.809 43.3203 33.2859 43.3203 33.7832C43.3203 34.2805 43.1228 34.7574 42.7711 35.109C42.4195 35.4607 41.9426 35.6582 41.4453 35.6582ZM54.5703 71.2832H26.4453C25.948 71.2832 25.4711 71.0857 25.1195 70.734C24.7679 70.3824 24.5703 69.9055 24.5703 69.4082C24.5703 68.9109 24.7679 68.434 25.1195 68.0824C25.4711 67.7308 25.948 67.5332 26.4453 67.5332H54.5703C55.0676 67.5332 55.5445 67.7308 55.8961 68.0824C56.2478 68.434 56.4453 68.9109 56.4453 69.4082C56.4453 69.9055 56.2478 70.3824 55.8961 70.734C55.5445 71.0857 55.0676 71.2832 54.5703 71.2832ZM69.5703 80.6582H26.4453C25.948 80.6582 25.4711 80.4607 25.1195 80.109C24.7679 79.7574 24.5703 79.2805 24.5703 78.7832C24.5703 78.2859 24.7679 77.809 25.1195 77.4574C25.4711 77.1057 25.948 76.9082 26.4453 76.9082H69.5703C70.0676 76.9082 70.5445 77.1057 70.8961 77.4574C71.2478 77.809 71.4453 78.2859 71.4453 78.7832C71.4453 79.2805 71.2478 79.7574 70.8961 80.109C70.5445 80.4607 70.0676 80.6582 69.5703 80.6582Z" fill="white"/>
<path opacity="0.1" d="M99.5709 9.4082V39.4082C79.6902 38.6751 79.7052 10.1338 99.5709 9.4082Z" fill="black"/>
<path d="M114.57 26.2832C114.57 30.2614 112.99 34.0768 110.177 36.8898C107.364 39.7029 103.548 41.2832 99.5702 41.2832C79.6952 40.5482 79.7008 12.0145 99.5702 11.2832C103.548 11.2832 107.364 12.8636 110.177 15.6766C112.99 18.4896 114.57 22.305 114.57 26.2832Z" fill="white"/>
<path d="M97.6957 31.9086C97.4495 31.9089 97.2056 31.8605 96.9781 31.7662C96.7506 31.6719 96.544 31.5336 96.3701 31.3592L92.6201 27.6092C92.2785 27.2556 92.0895 26.782 92.0938 26.2903C92.0981 25.7987 92.2953 25.3285 92.6429 24.9808C92.9906 24.6332 93.4608 24.436 93.9525 24.4317C94.4441 24.4274 94.9177 24.6164 95.2713 24.958L97.6957 27.3824L103.87 21.208C104.224 20.8664 104.697 20.6774 105.189 20.6817C105.681 20.686 106.151 20.8832 106.498 21.2308C106.846 21.5785 107.043 22.0487 107.048 22.5403C107.052 23.032 106.863 23.5056 106.521 23.8592L99.0213 31.3592C98.8475 31.5336 98.6408 31.6719 98.4133 31.7662C98.1858 31.8605 97.942 31.9089 97.6957 31.9086Z" fill="#FE9000"/>
<path opacity="0.1" d="M45.4953 98.4895L44.9703 99.4082H17.0703C16.0767 99.4053 15.1246 99.0092 14.4219 98.3066C13.7193 97.604 13.3233 96.6519 13.3203 95.6582V78.3145L15.5891 79.627C16.8828 80.2832 17.9328 78.7082 19.1328 78.352C19.3732 78.2416 19.577 78.0645 19.7199 77.8419C19.8628 77.6192 19.9388 77.3603 19.9391 77.0957V72.652C19.942 72.2866 20.0898 71.9374 20.3499 71.6808C20.61 71.4242 20.9612 71.2812 21.3266 71.2832H29.7828C30.1482 71.2812 30.4994 71.4242 30.7595 71.6808C31.0196 71.9374 31.1673 72.2866 31.1703 72.652V77.0957C31.1705 77.3603 31.2466 77.6192 31.3895 77.8419C31.5324 78.0645 31.7361 78.2416 31.9766 78.352C33.1766 78.7082 34.2266 80.2832 35.5203 79.627L39.3828 77.3957C39.6988 77.215 40.0734 77.1668 40.4248 77.2617C40.7762 77.3566 41.0757 77.5868 41.2578 77.902L45.4953 85.2332C45.6759 85.5522 45.7241 85.9294 45.6294 86.2836C45.5347 86.6378 45.3048 86.9406 44.9891 87.127L41.1453 89.3395C40.1891 89.8645 40.5453 90.9895 40.5266 91.8707C40.5453 92.752 40.1891 93.8582 41.1453 94.3832L44.9891 96.5957C45.304 96.7827 45.5334 97.0856 45.628 97.4395C45.7226 97.7934 45.675 98.1702 45.4953 98.4895Z" fill="black"/>
<path d="M40.5209 93.7616C40.5397 92.8804 40.1928 91.7573 41.1416 91.2435L44.9928 89.0198C45.1492 88.9295 45.2863 88.8092 45.3963 88.6659C45.5062 88.5226 45.5868 88.359 45.6335 88.1846C45.6802 88.0101 45.692 87.8281 45.6683 87.649C45.6446 87.47 45.5858 87.2974 45.4953 87.141L41.2578 79.8023C41.1677 79.6457 41.0476 79.5084 40.9043 79.3983C40.7611 79.2882 40.5975 79.2074 40.423 79.1605C40.2485 79.1137 40.0665 79.1017 39.8874 79.1253C39.7082 79.1488 39.5355 79.2075 39.3791 79.2979L35.5259 81.5235C34.2209 82.1873 33.1728 80.616 31.9822 80.2523C31.7421 80.1422 31.5381 79.9663 31.3941 79.7449C31.25 79.5235 31.1718 79.2658 31.1684 79.0016V74.5579C31.1687 74.3771 31.1333 74.198 31.0642 74.0309C30.9951 73.8639 30.8937 73.712 30.7659 73.5842C30.638 73.4563 30.4862 73.355 30.3191 73.2859C30.1521 73.2168 29.973 73.1814 29.7922 73.1816H21.3172C21.1365 73.1816 20.9577 73.2173 20.7908 73.2864C20.6239 73.3556 20.4723 73.457 20.3447 73.5849C20.217 73.7127 20.1158 73.8644 20.0469 74.0314C19.9779 74.1983 19.9426 74.3773 19.9428 74.5579V79.0016C19.9393 79.266 19.8608 79.5239 19.7164 79.7453C19.572 79.9667 19.3677 80.1425 19.1272 80.2523C17.9347 80.6123 16.8903 82.1891 15.5834 81.5235L11.7303 79.2979C11.5739 79.2075 11.4011 79.1488 11.222 79.1253C11.0429 79.1017 10.8609 79.1137 10.6864 79.1605C10.5119 79.2074 10.3483 79.2882 10.2051 79.3983C10.0618 79.5084 9.94169 79.6457 9.85156 79.8023L5.61406 87.141C5.52367 87.2975 5.46501 87.4702 5.44143 87.6493C5.41786 87.8285 5.42984 88.0105 5.47669 88.185C5.52354 88.3595 5.60433 88.523 5.71445 88.6663C5.82456 88.8095 5.96185 88.9296 6.11844 89.0198L9.96781 91.2435C10.9203 91.7591 10.5716 92.8785 10.5884 93.7616C10.5716 94.6429 10.9184 95.7641 9.96969 96.2798L6.11844 98.5016C5.96185 98.5918 5.82456 98.7119 5.71445 98.8551C5.60433 98.9984 5.52354 99.1619 5.47669 99.3364C5.42984 99.5109 5.41786 99.693 5.44143 99.8721C5.46501 100.051 5.52367 100.224 5.61406 100.38L9.85156 107.719C9.94169 107.876 10.0618 108.013 10.2051 108.123C10.3483 108.233 10.5119 108.314 10.6864 108.361C10.8609 108.408 11.0429 108.42 11.222 108.396C11.4011 108.373 11.5739 108.314 11.7303 108.224L15.5834 105.998C16.8884 105.336 17.9384 106.905 19.1272 107.269C19.3679 107.379 19.5725 107.555 19.7169 107.777C19.8613 107.999 19.9397 108.257 19.9428 108.522V112.965C19.9428 113.33 20.0876 113.679 20.3454 113.937C20.6031 114.195 20.9527 114.34 21.3172 114.34H29.7922C29.9728 114.34 30.1517 114.305 30.3187 114.236C30.4857 114.167 30.6374 114.066 30.7652 113.938C30.893 113.81 30.9945 113.659 31.0636 113.492C31.1328 113.325 31.1684 113.146 31.1684 112.965V108.522C31.1716 108.257 31.2499 107.999 31.3943 107.777C31.5388 107.555 31.7433 107.379 31.9841 107.269C33.1747 106.909 34.2191 105.332 35.5278 105.998L39.3791 108.224C39.5354 108.314 39.708 108.373 39.8871 108.396C40.0661 108.42 40.2481 108.408 40.4226 108.362C40.5971 108.315 40.7607 108.234 40.904 108.124C41.0473 108.015 41.1675 107.877 41.2578 107.721L45.4953 100.38C45.5858 100.224 45.6446 100.051 45.6683 99.8724C45.692 99.6933 45.6802 99.5114 45.6335 99.3369C45.5868 99.1624 45.5062 98.9988 45.3963 98.8555C45.2863 98.7122 45.1492 98.5919 44.9928 98.5016L41.1416 96.2798C40.1891 95.7623 40.5359 94.6429 40.5209 93.7616Z" fill="#FE9000"/>
<path d="M35.1802 93.7635C34.7865 106.487 16.3177 106.484 15.9277 93.7635C16.3215 81.0379 34.7902 81.0416 35.1802 93.7635Z" fill="white"/>
</svg>
