<svg width="335" height="158" viewBox="0 0 335 158" fill="none" xmlns="http://www.w3.org/2000/svg">
<path d="M177.245 8.33229C176.837 8.1143 176.391 7.97898 175.93 7.93411C175.47 7.88924 175.005 7.9357 174.563 8.07081C174.121 8.20593 173.709 8.42705 173.353 8.72148C172.996 9.01592 172.701 9.37787 172.485 9.78658C172.268 10.1939 172.134 10.6398 172.09 11.099C172.046 11.5581 172.093 12.0215 172.228 12.4625C172.363 12.9036 172.584 13.3137 172.877 13.6694C173.171 14.0252 173.532 14.3195 173.939 14.5358C174.76 14.955 175.713 15.0351 176.592 14.7588C177.471 14.4825 178.207 13.872 178.64 13.0586C179.074 12.2452 179.171 11.2941 178.91 10.4101C178.649 9.52608 178.051 8.77992 177.245 8.33229ZM190.345 26.3178L182.063 2.51512C181.88 1.97608 181.498 1.52695 180.996 1.25894C180.494 0.990937 179.908 0.924165 179.359 1.07219L155.022 7.52561C154.408 7.68467 153.897 8.09369 153.602 8.63905L131.265 50.6306C130.685 51.7327 131.094 53.0961 132.196 53.6756L164.816 71.0248C165.906 71.6156 167.281 71.1952 167.872 70.0932L175.234 56.2433L190.198 28.1118C190.3 27.9414 190.368 27.7482 190.414 27.5551C190.504 27.1472 190.482 26.7155 190.345 26.3178Z" fill="white"/>
<path opacity="0.1" d="M190.413 27.5555C190.367 27.7486 190.299 27.9418 190.197 28.1122L175.233 56.2437L174.04 55.5506C173.644 55.3214 173.314 54.9918 173.085 54.595C172.855 54.1981 172.734 53.748 172.734 53.2897V50.472C172.734 50.0175 172.62 49.5744 172.393 49.1767L170.984 46.734C170.518 45.9273 170.518 44.9388 170.984 44.1322L172.393 41.6894C172.62 41.3031 172.734 40.8486 172.734 40.3942V37.5765C172.734 36.6448 173.234 35.7927 174.04 35.3269L176.472 33.918C176.869 33.6908 177.199 33.3613 177.426 32.9637L178.835 30.5209C179.301 29.7142 180.164 29.2257 181.096 29.2257H183.902C184.368 29.2257 184.811 29.1007 185.209 28.8735L187.652 27.4646C188.458 26.9988 189.447 26.9988 190.254 27.4646L190.413 27.5555Z" fill="#FE3400"/>
<path d="M180.926 33.317L172.439 49.2687L165.02 63.2209C164.645 63.9253 163.77 64.1866 163.066 63.8117L139.161 51.098C138.993 51.0085 138.846 50.887 138.725 50.7403C138.605 50.5937 138.515 50.4248 138.46 50.2433C138.405 50.0618 138.387 49.8713 138.406 49.6826C138.424 49.4939 138.48 49.3108 138.57 49.1438L154.465 19.2398C154.851 18.5354 155.726 18.2741 156.43 18.649L178.813 30.5561L180.324 31.3627C181.04 31.7365 181.301 32.6125 180.926 33.317Z" fill="#FE3400"/>
<path opacity="0.6" d="M180.926 33.3166L172.438 49.2683C172.427 49.2342 172.404 49.2115 172.393 49.1774L170.984 46.7347C170.518 45.928 170.518 44.9395 170.984 44.1329L172.393 41.6901C172.62 41.3038 172.734 40.8493 172.734 40.3949V37.5772C172.734 36.6455 173.234 35.7934 174.04 35.3276L176.472 33.9187C176.869 33.6915 177.199 33.362 177.426 32.9643L178.812 30.5557L180.323 31.3623C181.039 31.7361 181.301 32.6121 180.926 33.3166Z" fill="#E82F00"/>
<path d="M190.02 30.6766L192.022 31.832C192.347 32.0195 192.717 32.1184 193.092 32.1184H195.404C196.168 32.1184 196.874 32.5262 197.257 33.1875L198.412 35.1894C198.6 35.5144 198.87 35.7848 199.195 35.9722L201.197 37.1277C201.859 37.5095 202.266 38.2162 202.266 38.9808V41.2929C202.266 41.669 202.365 42.0371 202.552 42.362L203.708 44.364C204.09 45.0263 204.09 45.841 203.708 46.5034L202.552 48.5053C202.365 48.8304 202.266 49.1991 202.266 49.5744V51.8865C202.266 52.6512 201.858 53.3567 201.197 53.7396L199.195 54.8951C198.87 55.0828 198.6 55.3528 198.412 55.6779L197.257 57.6798C197.069 58.0052 196.799 58.2753 196.474 58.463C196.148 58.6507 195.779 58.7493 195.404 58.749H193.092C192.715 58.749 192.347 58.8478 192.022 59.0353L190.02 60.1908C189.358 60.5725 188.543 60.5725 187.881 60.1908L185.879 59.0353C185.554 58.8478 185.185 58.749 184.81 58.749H182.498C182.122 58.7488 181.754 58.65 181.428 58.4624C181.103 58.2747 180.833 58.0048 180.645 57.6798L179.489 55.6779C179.302 55.3528 179.032 55.0828 178.707 54.8951L176.703 53.7407C176.378 53.5531 176.108 53.2829 175.92 52.9576C175.733 52.6323 175.634 52.2632 175.634 51.8877V49.5756C175.634 49.1995 175.535 48.8314 175.348 48.5064L174.193 46.5045C174.005 46.1792 173.906 45.8103 173.906 45.4348C173.906 45.0593 174.005 44.6904 174.193 44.3651L175.348 42.3632C175.535 42.0382 175.634 41.669 175.634 41.294V38.9819C175.634 38.2173 176.042 37.5117 176.703 37.1289L178.705 35.9734C179.03 35.7859 179.301 35.5155 179.488 35.1906L180.644 33.1886C180.831 32.8633 181.101 32.5932 181.427 32.4055C181.752 32.2178 182.121 32.1192 182.497 32.1195H184.809C185.185 32.1195 185.553 32.0206 185.878 31.8332L187.88 30.6777C188.205 30.4892 188.574 30.3898 188.95 30.3896C189.326 30.3894 189.695 30.4884 190.02 30.6766Z" fill="#0269B8"/>
<path d="M199.105 47.8398C200.429 42.2336 196.957 36.6158 191.351 35.292C185.745 33.9682 180.127 37.4398 178.803 43.0459C177.479 48.6521 180.951 54.2699 186.557 55.5937C192.163 56.9175 197.781 53.446 199.105 47.8398Z" fill="white"/>
<path d="M185.688 58.9477L181.552 69.4515C181.482 69.6314 181.367 69.7907 181.219 69.9151C181.071 70.0395 180.894 70.1249 180.705 70.1638C180.516 70.2026 180.32 70.1935 180.135 70.1374C179.95 70.0813 179.782 69.9798 179.646 69.8424L174.646 64.7796C174.441 64.5726 174.322 64.2964 174.311 64.0056C174.301 63.7148 174.4 63.4307 174.589 63.2094L180.108 56.7446L180.64 57.6854C181.012 58.3432 181.709 58.75 182.465 58.75H184.81C185.106 58.75 185.416 58.8125 185.688 58.9477Z" fill="white"/>
<path d="M185.687 58.9478L181.552 69.446C181.393 69.8664 181.029 70.1163 180.632 70.1731L184.21 61.0724C183.938 60.9361 183.631 60.8793 183.336 60.8793H180.984C180.234 60.8793 179.529 60.4703 179.166 59.8113L178.632 58.8796L174.314 63.9242C174.326 63.6743 174.417 63.4129 174.587 63.2084L180.109 56.7437L180.643 57.6867C181.018 58.3456 181.711 58.7547 182.461 58.7547H184.813C185.108 58.7558 185.415 58.8126 185.687 58.9478Z" fill="#E6E6EF"/>
<path d="M203.263 64.7806L198.251 69.8456C198.115 69.9831 197.947 70.0844 197.762 70.1405C197.577 70.1965 197.381 70.2055 197.192 70.1665C197.002 70.1276 196.826 70.042 196.678 69.9175C196.53 69.793 196.415 69.6336 196.345 69.4536L192.209 58.9486C192.482 58.8123 192.791 58.7509 193.087 58.7509H195.412C196.173 58.7509 196.876 58.3453 197.257 57.6864L197.801 56.7456L203.32 63.2093C203.509 63.4305 203.609 63.7149 203.598 64.006C203.587 64.2971 203.468 64.5736 203.263 64.7806Z" fill="white"/>
<path d="M203.605 64.0047L199.106 58.7443L198.56 59.6873C198.185 60.3463 197.481 60.7439 196.72 60.7439H194.39C194.095 60.7439 193.788 60.8121 193.516 60.9484L197.14 70.1628C196.799 70.0719 196.492 69.8219 196.345 69.4583L192.209 58.9488C192.482 58.8125 192.788 58.7556 193.084 58.7556H195.413C196.174 58.7556 196.879 58.3466 197.254 57.6876L197.799 56.7446L203.321 63.2094C203.525 63.4366 203.616 63.7207 203.605 64.0047Z" fill="#E6E6EF"/>
<path d="M189.847 41.1724L190.782 43.0675C190.828 43.1595 190.916 43.2243 191.019 43.2391L193.109 43.5424C193.294 43.569 193.468 43.6469 193.611 43.7672C193.754 43.8875 193.86 44.0455 193.918 44.2231C193.975 44.4007 193.982 44.591 193.937 44.7723C193.892 44.9536 193.798 45.1187 193.664 45.2489L192.15 46.7237C192.114 46.7591 192.087 46.8028 192.071 46.8512C192.055 46.8995 192.052 46.9509 192.06 47.0009L192.417 49.0835C192.449 49.2676 192.429 49.4569 192.358 49.63C192.288 49.803 192.171 49.953 192.019 50.0627C191.868 50.1725 191.689 50.2377 191.503 50.251C191.317 50.2643 191.13 50.2251 190.965 50.1379L189.095 49.1551C189.05 49.1316 189 49.1193 188.949 49.1193C188.898 49.1193 188.848 49.1316 188.803 49.1551L186.933 50.1379C186.768 50.2251 186.581 50.2643 186.395 50.251C186.209 50.2377 186.03 50.1725 185.879 50.0627C185.728 49.953 185.61 49.803 185.54 49.63C185.47 49.4569 185.449 49.2676 185.481 49.0835L185.838 47.0009C185.846 46.9509 185.843 46.8995 185.827 46.8512C185.811 46.803 185.784 46.7592 185.748 46.7237L184.235 45.2489C184.101 45.1187 184.006 44.9536 183.961 44.7723C183.916 44.591 183.923 44.4007 183.981 44.2231C184.038 44.0455 184.145 43.8875 184.288 43.7672C184.43 43.6469 184.604 43.569 184.789 43.5424L186.88 43.2391C186.93 43.2317 186.978 43.2122 187.019 43.1824C187.06 43.1525 187.093 43.1131 187.116 43.0675L188.051 41.1724C188.134 41.005 188.262 40.864 188.42 40.7655C188.579 40.667 188.762 40.6147 188.949 40.6147C189.136 40.6147 189.319 40.667 189.478 40.7655C189.636 40.864 189.764 41.005 189.847 41.1724Z" fill="#FE3400"/>
<path d="M198.838 56.6457L199.148 56.1072C199.263 55.9106 199.427 55.747 199.621 55.6345L201.624 54.4779C202.078 54.2147 202.455 53.8369 202.717 53.3823C202.98 52.9278 203.118 52.4123 203.119 51.8874V49.5765C203.119 49.3504 203.179 49.1277 203.291 48.9334L204.447 46.9303C204.709 46.4753 204.847 45.9595 204.847 45.4346C204.847 44.9096 204.709 44.3938 204.447 43.9388L203.291 41.9369C203.178 41.7413 203.119 41.5195 203.119 41.2938V38.9817C203.118 38.4569 202.98 37.9414 202.717 37.4868C202.455 37.0322 202.078 36.6545 201.624 36.3913L199.622 35.2369C199.427 35.1223 199.264 34.9596 199.149 34.7643L197.994 32.7601C197.73 32.3064 197.352 31.9296 196.898 31.6675C196.443 31.4053 195.928 31.2669 195.403 31.266H193.091C192.865 31.266 192.642 31.2058 192.448 31.0945L190.446 29.9378C190.382 29.9003 190.308 29.8856 190.241 29.8538L190.955 28.5097C191.155 28.1319 191.275 27.7171 191.308 27.2911C191.341 26.865 191.286 26.4368 191.146 26.0328L191.145 26.0317L188.806 19.3045C193.315 20.4361 201.03 21.011 202.383 16.881C203.933 12.1489 195.484 7.64739 190.678 6.07152C188.301 5.29325 185.912 4.81606 183.711 4.65359L182.873 2.24151C182.616 1.49839 182.088 0.879802 181.395 0.5101C180.701 0.140399 179.893 0.0469967 179.133 0.248671L154.799 6.69982C154.386 6.80965 154 7.00318 153.665 7.26841C153.33 7.53363 153.053 7.86488 152.852 8.2416L130.517 50.2298C130.131 50.9573 130.049 51.8081 130.29 52.5957C130.53 53.3833 131.073 54.0434 131.8 54.4313L164.41 71.7772C164.77 71.9698 165.165 72.0896 165.572 72.1296C165.978 72.1696 166.389 72.1291 166.78 72.0104C167.171 71.8917 167.535 71.6971 167.851 71.4378C168.166 71.1785 168.428 70.8594 168.621 70.499L176.94 54.8608L178.279 55.6345C178.474 55.7481 178.637 55.9106 178.751 56.106L179.066 56.6525L173.941 62.6572C173.611 63.0395 173.437 63.5327 173.456 64.0377C173.474 64.5427 173.683 65.022 174.04 65.3794L179.04 70.441C180.062 71.4738 181.813 71.1182 182.347 69.7627L186.125 60.1633L187.454 60.9302C187.909 61.1926 188.425 61.3308 188.95 61.3308C189.475 61.3308 189.991 61.1926 190.446 60.9302L191.772 60.1644L195.551 69.7639C195.674 70.0758 195.872 70.3521 196.129 70.5679C196.385 70.7837 196.691 70.932 197.019 70.9995C197.348 71.067 197.688 71.0515 198.008 70.9543C198.329 70.8572 198.62 70.6816 198.856 70.4433L203.868 65.3794C204.61 64.6307 204.652 63.4593 203.968 62.656L198.838 56.6457ZM190.149 7.69283C193.83 8.89944 201.872 12.9703 200.764 16.3516C199.711 19.5635 191.488 18.3296 188.127 17.3525L184.326 6.41806C186.183 6.61802 188.167 7.04295 190.149 7.69283ZM167.116 69.698C167.029 69.8609 166.91 70.005 166.767 70.1221C166.624 70.2392 166.46 70.3269 166.283 70.3803C166.106 70.4337 165.92 70.4517 165.736 70.4333C165.552 70.4148 165.374 70.3603 165.211 70.2729L132.601 52.927C132.273 52.7522 132.027 52.4543 131.919 52.0988C131.81 51.7432 131.847 51.3591 132.021 51.0308L154.356 9.0426C154.538 8.69948 154.858 8.44611 155.235 8.34613L179.569 1.89725C179.912 1.80254 180.279 1.84301 180.594 2.01035C180.909 2.17769 181.148 2.4592 181.261 2.79709L186.09 16.6845C183.4 15.7039 181.175 14.4848 179.541 13.2385C180.49 11.1536 179.683 8.66312 177.641 7.57581C175.659 6.52031 172.913 7.17247 171.734 9.38913C171.464 9.89495 171.296 10.449 171.241 11.0196C171.186 11.5902 171.243 12.1661 171.411 12.7143C171.578 13.2626 171.852 13.7724 172.217 14.2146C172.582 14.6569 173.03 15.0228 173.537 15.2915C174.341 15.719 175.258 15.8835 176.161 15.7619C177.063 15.6402 177.905 15.2384 178.567 14.6132C180.539 16.1198 183.261 17.5945 186.799 18.7261L189.534 26.5918C189.597 26.7741 189.622 26.9674 189.607 27.1597C189.593 27.352 189.539 27.5392 189.449 27.7098L188.441 29.6038C188.094 29.655 187.759 29.7682 187.452 29.9378L185.449 31.0945C185.254 31.207 185.032 31.2661 184.806 31.266H182.498C181.973 31.2668 181.457 31.4053 181.003 31.6677C180.548 31.9301 180.17 32.3071 179.907 32.7612L178.751 34.7643C178.637 34.9597 178.474 35.1222 178.279 35.2358L176.277 36.3913C175.823 36.6543 175.446 37.032 175.183 37.4866C174.921 37.9413 174.783 38.4568 174.782 38.9817V41.2938C174.782 41.5188 174.722 41.7415 174.609 41.9369L173.454 43.9388C173.191 44.3937 173.053 44.9095 173.053 45.4346C173.053 45.9597 173.191 46.4755 173.454 46.9303L174.61 48.9345C174.723 49.13 174.782 49.3515 174.782 49.5765V51.8874C174.782 52.6248 175.071 53.3156 175.544 53.8541L167.116 69.698ZM176.841 9.08009C177.93 9.65954 178.442 10.898 178.167 12.05C177.015 10.9059 176.401 9.80497 176.402 8.9108C176.551 8.95852 176.7 9.00511 176.841 9.08009ZM177.257 13.5077C176.851 13.8345 176.358 14.0351 175.839 14.0846C175.321 14.1341 174.799 14.0303 174.339 13.7861C174.03 13.6226 173.756 13.3997 173.534 13.1302C173.311 12.8608 173.144 12.5501 173.042 12.2159C172.94 11.8817 172.905 11.5306 172.939 11.1828C172.972 10.835 173.074 10.4973 173.239 10.189C173.557 9.59023 174.079 9.15167 174.708 8.92898C174.727 10.3901 175.644 11.983 177.257 13.5077ZM180.76 69.1401C180.742 69.188 180.711 69.2305 180.672 69.2636C180.632 69.2967 180.585 69.3194 180.535 69.3297C180.484 69.3399 180.432 69.3374 180.383 69.3224C180.333 69.3073 180.289 69.2802 180.253 69.2435L175.253 64.1819C175.198 64.1272 175.166 64.0536 175.163 63.976C175.16 63.8984 175.187 63.8225 175.238 63.7638L179.969 58.2227C180.234 58.6448 180.602 58.9928 181.039 59.2342C181.475 59.4756 181.966 59.6025 182.465 59.6031H182.49L182.498 59.6043H184.514L180.76 69.1401ZM189.594 59.4554C189.196 59.6849 188.705 59.6838 188.307 59.4554L186.305 58.3C185.847 58.0467 185.334 57.9087 184.811 57.8978H182.491C182.266 57.8963 182.046 57.8363 181.852 57.7237C181.658 57.6111 181.497 57.4498 181.384 57.2558L180.228 55.2539C179.965 54.7991 179.587 54.4214 179.132 54.1586L177.129 53.002C176.934 52.8888 176.772 52.7262 176.659 52.5306C176.547 52.3349 176.487 52.1132 176.487 51.8874V49.5765C176.487 49.0504 176.349 48.5335 176.085 48.0813L174.93 46.0771C174.817 45.8815 174.758 45.6597 174.758 45.434C174.758 45.2083 174.817 44.9865 174.93 44.7909L176.084 42.7901C176.348 42.3368 176.486 41.8199 176.486 41.2938V38.9817C176.486 38.5238 176.733 38.0966 177.129 37.8671L179.132 36.7105C179.587 36.4481 179.965 36.0686 180.226 35.6164L181.383 33.6133C181.613 33.2157 182.04 32.9703 182.498 32.9703H184.809C185.334 32.9702 185.849 32.8319 186.304 32.5692L188.307 31.4126C188.705 31.1853 189.196 31.1842 189.594 31.4126L191.596 32.5692C192.049 32.8305 192.566 32.9703 193.091 32.9703H195.403C195.861 32.9703 196.288 33.2179 196.518 33.6133L197.675 35.6175C197.936 36.0697 198.314 36.4481 198.769 36.7117L200.771 37.8671C201.168 38.0966 201.415 38.5238 201.415 38.9817V41.2938C201.415 41.8187 201.553 42.3357 201.816 42.789L202.973 44.7898C203.201 45.1886 203.201 45.6817 202.973 46.0782L201.816 48.0813C201.554 48.536 201.415 49.0516 201.415 49.5765V51.8874C201.415 52.3453 201.168 52.7725 200.772 53.002L198.769 54.1586C198.314 54.422 197.937 54.7996 197.673 55.2539L196.518 57.2558C196.405 57.4502 196.244 57.6117 196.05 57.7243C195.855 57.8369 195.635 57.8967 195.41 57.8978H193.087C192.564 57.9095 192.052 58.0475 191.595 58.3L189.594 59.4554ZM202.657 64.1819L197.645 69.2458C197.609 69.2828 197.564 69.3101 197.515 69.3253C197.466 69.3404 197.413 69.3429 197.363 69.3325C197.312 69.3221 197.265 69.2991 197.226 69.2657C197.187 69.2322 197.157 69.1895 197.138 69.1413L193.384 59.6031H195.404C195.412 59.6031 195.419 59.5997 195.427 59.5997C195.847 59.5943 196.261 59.5001 196.641 59.3233C197.022 59.1464 197.361 58.891 197.636 58.5738C197.739 58.4567 197.851 58.3465 197.935 58.2125L202.673 63.7615C202.723 63.8206 202.75 63.8969 202.747 63.9748C202.744 64.0528 202.712 64.1268 202.657 64.1819Z" fill="black" fill-opacity="0.8"/>
<path d="M193.259 48.9404L192.95 47.1373L194.26 45.8591C194.508 45.6185 194.684 45.3129 194.767 44.9772C194.85 44.6415 194.837 44.2892 194.729 43.9606C194.624 43.6311 194.428 43.338 194.163 43.115C193.899 42.8919 193.577 42.7479 193.234 42.6995L191.422 42.437L190.613 40.7964C190.461 40.4857 190.225 40.224 189.931 40.0414C189.638 39.8587 189.299 39.7625 188.953 39.7636C188.243 39.7636 187.604 40.1601 187.29 40.7964L186.481 42.437L184.669 42.6995C184.326 42.7482 184.004 42.8925 183.74 43.1158C183.475 43.339 183.279 43.6322 183.173 43.9617C183.066 44.2902 183.053 44.6423 183.136 44.9778C183.219 45.3133 183.394 45.6187 183.643 45.8591L184.953 47.1373L184.644 48.9404C184.385 50.4515 185.969 51.6047 187.332 50.8935L188.952 50.0425L190.571 50.8935C191.942 51.6093 193.518 50.4402 193.259 48.9404ZM191.52 49.3722C191.498 49.3902 191.471 49.4009 191.443 49.403C191.415 49.405 191.387 49.3982 191.363 49.3835L189.493 48.4007C189.326 48.3131 189.14 48.2674 188.951 48.2674C188.762 48.2674 188.576 48.3131 188.409 48.4007L186.539 49.3835C186.517 49.3949 186.457 49.4267 186.381 49.3722C186.307 49.3176 186.318 49.2506 186.322 49.2279L186.678 47.1475C186.711 46.9609 186.697 46.7693 186.639 46.5892C186.58 46.4091 186.479 46.2458 186.343 46.1136L184.83 44.6378C184.809 44.6194 184.794 44.5951 184.787 44.5681C184.781 44.5411 184.783 44.5126 184.792 44.4866C184.821 44.398 184.89 44.3878 184.912 44.3844L187 44.0799C187.381 44.0265 187.71 43.7879 187.881 43.4425L188.816 41.5474C188.826 41.5269 188.855 41.4644 188.949 41.4644C189.041 41.4656 189.07 41.5269 189.08 41.5462L190.015 43.4425C190.186 43.7879 190.515 44.0265 190.894 44.0799L192.984 44.3844C193.012 44.387 193.038 44.3981 193.06 44.4161C193.081 44.4342 193.096 44.4585 193.103 44.4855C193.131 44.573 193.082 44.6218 193.066 44.6378L191.555 46.1125C191.282 46.3772 191.155 46.7612 191.217 47.1453L191.574 49.229C191.583 49.2517 191.595 49.3188 191.52 49.3722ZM158.033 43.4243C158.219 43.5537 158.448 43.6042 158.67 43.5648C158.892 43.5254 159.09 43.3992 159.22 43.2141L166.604 32.6523C166.671 32.5608 166.72 32.4567 166.747 32.346C166.774 32.2354 166.778 32.1204 166.76 32.0081C166.741 31.8957 166.701 31.7881 166.64 31.6917C166.579 31.5953 166.5 31.5121 166.407 31.4468C166.314 31.3816 166.208 31.3358 166.097 31.312C165.985 31.2882 165.87 31.2869 165.759 31.3083C165.647 31.3297 165.54 31.3733 165.446 31.4365C165.351 31.4997 165.27 31.5813 165.207 31.6764L157.823 42.2382C157.694 42.4234 157.643 42.6523 157.683 42.8748C157.722 43.0972 157.848 43.2949 158.033 43.4243ZM167.368 36.9698C166.484 37.0879 165.682 37.5524 165.14 38.2612C164.598 38.97 164.359 39.8651 164.477 40.7498C164.597 41.6319 165.062 42.4304 165.77 42.9699C166.479 43.5094 167.372 43.746 168.254 43.6277C168.691 43.5705 169.112 43.4276 169.494 43.2072C169.875 42.9868 170.209 42.6932 170.477 42.3434C170.744 41.9935 170.94 41.5943 171.053 41.1685C171.166 40.7428 171.194 40.2989 171.135 39.8624C171.078 39.425 170.935 39.0032 170.715 38.621C170.494 38.2388 170.201 37.9038 169.851 37.6351C169.501 37.3664 169.102 37.1694 168.676 37.0552C168.25 36.941 167.805 36.912 167.368 36.9698ZM169.446 40.0885C169.475 40.3033 169.462 40.5216 169.406 40.7311C169.351 40.9406 169.255 41.137 169.123 41.3092C168.991 41.4813 168.827 41.6256 168.639 41.734C168.452 41.8423 168.244 41.9125 168.029 41.9405C167.595 41.9994 167.154 41.8834 166.805 41.618C166.455 41.3527 166.225 40.9595 166.165 40.5248C166.108 40.0883 166.226 39.6469 166.494 39.2973C166.762 38.9477 167.157 38.7183 167.593 38.6592C168.028 38.6032 168.468 38.7223 168.816 38.9903C169.163 39.2583 169.39 39.6533 169.446 40.0885C169.446 40.0874 169.446 40.0874 169.446 40.0885ZM157.468 37.4401C158.349 37.322 159.147 36.8592 159.687 36.1533C160.227 35.4474 160.465 34.5561 160.349 33.6749C160.292 33.2376 160.149 32.8148 159.928 32.4328C159.708 32.0508 159.414 31.7159 159.064 31.4474C158.714 31.1789 158.315 30.9819 157.889 30.8678C157.463 30.7537 157.019 30.7246 156.581 30.7822C155.697 30.9003 154.895 31.3649 154.353 32.0737C153.811 32.7825 153.572 33.6776 153.69 34.5622C153.749 34.9993 153.893 35.4206 154.115 35.8018C154.337 36.1831 154.631 36.5169 154.982 36.7842C155.333 37.0515 155.733 37.247 156.16 37.3595C156.586 37.4721 157.031 37.4995 157.468 37.4401ZM156.806 32.4706C157.242 32.4151 157.681 32.5344 158.029 32.8023C158.376 33.0702 158.603 33.4648 158.661 33.8998C158.718 34.3351 158.601 34.7755 158.334 35.1242C158.067 35.4729 157.673 35.7013 157.238 35.7592C156.802 35.817 156.362 35.6996 156.013 35.4327C155.664 35.1659 155.436 34.7714 155.378 34.3361C155.322 33.8996 155.44 33.4584 155.708 33.1089C155.975 32.7594 156.37 32.5299 156.806 32.4706ZM165.676 52.141L147.577 43.1857C147.477 43.1351 147.368 43.1049 147.255 43.0967C147.143 43.0886 147.031 43.1027 146.924 43.1383C146.817 43.1738 146.719 43.2301 146.634 43.3039C146.549 43.3777 146.48 43.4676 146.43 43.5683C146.38 43.669 146.351 43.7786 146.343 43.8907C146.336 44.0029 146.351 44.1154 146.387 44.2218C146.423 44.3281 146.48 44.4263 146.555 44.5106C146.629 44.5948 146.72 44.6635 146.821 44.7127L164.92 53.668C165.12 53.7547 165.347 53.7612 165.552 53.6859C165.757 53.6107 165.926 53.4595 166.023 53.2636C166.12 53.0678 166.138 52.8421 166.074 52.6332C166.009 52.4243 165.867 52.2481 165.676 52.141ZM158.344 53.9736L144.847 47.2952C144.747 47.2446 144.637 47.2144 144.525 47.2063C144.413 47.1981 144.301 47.2122 144.194 47.2478C144.087 47.2833 143.989 47.3396 143.904 47.4134C143.819 47.4872 143.75 47.5771 143.7 47.6778C143.65 47.7785 143.621 47.8881 143.613 48.0002C143.606 48.1124 143.621 48.2249 143.657 48.3313C143.693 48.4377 143.75 48.5358 143.825 48.6201C143.899 48.7043 143.989 48.7731 144.09 48.8223L157.587 55.5006C157.788 55.5874 158.014 55.5938 158.219 55.5186C158.424 55.4433 158.593 55.2922 158.69 55.0963C158.787 54.9004 158.805 54.6747 158.741 54.4658C158.676 54.257 158.534 54.0808 158.344 53.9736Z" fill="white"/>
<path d="M65.4347 123.145V108.599H71.0028C72.054 108.599 72.9276 108.765 73.6236 109.096C74.3243 109.423 74.8475 109.87 75.1932 110.439C75.5436 111.007 75.7188 111.651 75.7188 112.37C75.7188 112.962 75.6051 113.469 75.3778 113.89C75.1506 114.307 74.8452 114.645 74.4616 114.906C74.0781 115.166 73.6496 115.353 73.1761 115.467V115.609C73.6922 115.637 74.187 115.796 74.6605 116.085C75.1387 116.369 75.5294 116.771 75.8324 117.292C76.1354 117.813 76.2869 118.443 76.2869 119.181C76.2869 119.934 76.1046 120.611 75.7401 121.213C75.3755 121.809 74.8262 122.28 74.0923 122.626C73.3584 122.972 72.4351 123.145 71.3224 123.145H65.4347ZM68.0696 120.943H70.9034C71.8598 120.943 72.5488 120.761 72.9702 120.396C73.3963 120.027 73.6094 119.553 73.6094 118.975C73.6094 118.545 73.5028 118.156 73.2898 117.811C73.0767 117.46 72.7737 117.186 72.3807 116.987C71.9877 116.783 71.5189 116.681 70.9744 116.681H68.0696V120.943ZM68.0696 114.785H70.6761C71.1307 114.785 71.5402 114.702 71.9048 114.537C72.2694 114.366 72.5559 114.127 72.7642 113.819C72.9773 113.507 73.0838 113.137 73.0838 112.711C73.0838 112.148 72.8849 111.684 72.4872 111.319C72.0942 110.955 71.5095 110.772 70.733 110.772H68.0696V114.785ZM83.3951 123.358C82.3013 123.358 81.3567 123.13 80.5613 122.676C79.7706 122.217 79.1621 121.568 78.736 120.73C78.3099 119.887 78.0968 118.895 78.0968 117.754C78.0968 116.632 78.3099 115.647 78.736 114.799C79.1669 113.947 79.7682 113.284 80.54 112.811C81.3118 112.333 82.2185 112.093 83.2602 112.093C83.9325 112.093 84.567 112.202 85.1636 112.42C85.7649 112.633 86.2952 112.965 86.7545 113.414C87.2185 113.864 87.5831 114.437 87.8482 115.133C88.1134 115.824 88.246 116.648 88.246 117.605V118.393H79.3042V116.66H85.7815C85.7767 116.168 85.6702 115.73 85.4619 115.346C85.2535 114.958 84.9623 114.653 84.5883 114.43C84.219 114.208 83.7881 114.096 83.2957 114.096C82.7701 114.096 82.3085 114.224 81.9107 114.48C81.513 114.731 81.2029 115.062 80.9803 115.474C80.7625 115.881 80.6513 116.329 80.6465 116.816V118.329C80.6465 118.964 80.7625 119.508 80.9945 119.963C81.2265 120.413 81.5509 120.758 81.9675 121C82.3842 121.236 82.8719 121.355 83.4306 121.355C83.8047 121.355 84.1432 121.303 84.4462 121.199C84.7493 121.09 85.0121 120.931 85.2346 120.723C85.4571 120.514 85.6252 120.256 85.7389 119.949L88.1394 120.218C87.9879 120.853 87.6991 121.407 87.2729 121.88C86.8515 122.349 86.3118 122.714 85.6536 122.974C84.9955 123.23 84.2426 123.358 83.3951 123.358ZM99.1432 115.119L96.7994 115.375C96.7331 115.138 96.6171 114.915 96.4514 114.707C96.2904 114.499 96.0726 114.331 95.798 114.203C95.5234 114.075 95.1872 114.011 94.7895 114.011C94.2545 114.011 93.8046 114.127 93.4401 114.359C93.0802 114.591 92.9027 114.892 92.9074 115.261C92.9027 115.578 93.0187 115.836 93.2554 116.035C93.4969 116.234 93.8946 116.397 94.4486 116.525L96.3094 116.923C97.3416 117.145 98.1086 117.498 98.6105 117.981C99.1171 118.464 99.3728 119.096 99.3776 119.877C99.3728 120.564 99.1716 121.17 98.7739 121.696C98.3809 122.217 97.834 122.624 97.1332 122.917C96.4325 123.211 95.6276 123.358 94.7185 123.358C93.3832 123.358 92.3084 123.078 91.494 122.52C90.6796 121.956 90.1943 121.172 90.0381 120.169L92.5452 119.927C92.6588 120.42 92.9003 120.791 93.2696 121.042C93.6389 121.293 94.1195 121.419 94.7114 121.419C95.3222 121.419 95.8122 121.293 96.1815 121.042C96.5556 120.791 96.7426 120.481 96.7426 120.112C96.7426 119.799 96.6219 119.541 96.3804 119.338C96.1437 119.134 95.7743 118.978 95.2724 118.869L93.4116 118.478C92.3652 118.261 91.5911 117.894 91.0892 117.377C90.5873 116.857 90.3387 116.199 90.3435 115.403C90.3387 114.731 90.521 114.148 90.8903 113.656C91.2644 113.159 91.7829 112.775 92.4457 112.505C93.1134 112.231 93.8828 112.093 94.754 112.093C96.0324 112.093 97.0385 112.366 97.7724 112.91C98.5111 113.455 98.968 114.191 99.1432 115.119ZM107.045 112.235V114.224H100.774V112.235H107.045ZM102.322 109.622H104.893V119.863C104.893 120.209 104.945 120.474 105.049 120.659C105.158 120.839 105.3 120.962 105.475 121.028C105.651 121.094 105.845 121.127 106.058 121.127C106.219 121.127 106.366 121.116 106.498 121.092C106.635 121.068 106.74 121.047 106.811 121.028L107.244 123.038C107.107 123.085 106.91 123.137 106.654 123.194C106.403 123.251 106.096 123.284 105.731 123.294C105.087 123.313 104.507 123.216 103.991 123.002C103.475 122.785 103.065 122.449 102.762 121.994C102.464 121.539 102.317 120.971 102.322 120.289V109.622ZM114.47 123.145V108.599H119.924C121.042 108.599 121.979 108.807 122.737 109.224C123.499 109.641 124.074 110.214 124.463 110.943C124.856 111.667 125.052 112.491 125.052 113.414C125.052 114.347 124.856 115.176 124.463 115.9C124.07 116.625 123.49 117.195 122.723 117.612C121.956 118.024 121.011 118.23 119.889 118.23H116.274V116.064H119.534C120.187 116.064 120.722 115.95 121.139 115.723C121.556 115.495 121.863 115.183 122.062 114.785C122.266 114.387 122.368 113.931 122.368 113.414C122.368 112.898 122.266 112.444 122.062 112.051C121.863 111.658 121.553 111.352 121.132 111.135C120.715 110.912 120.178 110.801 119.52 110.801H117.105V123.145H114.47ZM127.327 123.145V112.235H129.82V114.054H129.934C130.133 113.424 130.474 112.939 130.957 112.598C131.444 112.252 132.001 112.079 132.626 112.079C132.768 112.079 132.926 112.086 133.101 112.1C133.281 112.11 133.43 112.127 133.549 112.15V114.515C133.44 114.477 133.267 114.444 133.03 114.416C132.798 114.383 132.573 114.366 132.356 114.366C131.887 114.366 131.466 114.468 131.091 114.672C130.722 114.87 130.431 115.147 130.218 115.502C130.005 115.858 129.898 116.267 129.898 116.731V123.145H127.327ZM135.357 123.145V112.235H137.928V123.145H135.357ZM136.65 110.687C136.242 110.687 135.892 110.552 135.598 110.282C135.305 110.008 135.158 109.679 135.158 109.295C135.158 108.907 135.305 108.578 135.598 108.308C135.892 108.033 136.242 107.896 136.65 107.896C137.062 107.896 137.412 108.033 137.701 108.308C137.994 108.578 138.141 108.907 138.141 109.295C138.141 109.679 137.994 110.008 137.701 110.282C137.412 110.552 137.062 110.687 136.65 110.687ZM145.43 123.358C144.341 123.358 143.406 123.118 142.625 122.64C141.848 122.162 141.249 121.502 140.828 120.659C140.411 119.811 140.203 118.836 140.203 117.733C140.203 116.625 140.416 115.647 140.842 114.799C141.268 113.947 141.87 113.284 142.646 112.811C143.427 112.333 144.351 112.093 145.416 112.093C146.302 112.093 147.085 112.257 147.767 112.583C148.454 112.905 149 113.362 149.408 113.954C149.815 114.541 150.047 115.228 150.104 116.014H147.646C147.547 115.488 147.31 115.05 146.936 114.7C146.567 114.345 146.072 114.167 145.452 114.167C144.926 114.167 144.464 114.309 144.067 114.593C143.669 114.873 143.359 115.275 143.136 115.801C142.918 116.326 142.81 116.956 142.81 117.69C142.81 118.433 142.918 119.073 143.136 119.608C143.354 120.138 143.659 120.547 144.052 120.836C144.45 121.12 144.917 121.262 145.452 121.262C145.83 121.262 146.169 121.191 146.467 121.049C146.77 120.903 147.024 120.692 147.227 120.417C147.431 120.143 147.57 119.809 147.646 119.416H150.104C150.042 120.188 149.815 120.872 149.422 121.468C149.029 122.06 148.494 122.524 147.817 122.86C147.14 123.192 146.344 123.358 145.43 123.358ZM157.144 123.358C156.051 123.358 155.106 123.13 154.311 122.676C153.52 122.217 152.911 121.568 152.485 120.73C152.059 119.887 151.846 118.895 151.846 117.754C151.846 116.632 152.059 115.647 152.485 114.799C152.916 113.947 153.517 113.284 154.289 112.811C155.061 112.333 155.968 112.093 157.009 112.093C157.682 112.093 158.316 112.202 158.913 112.42C159.514 112.633 160.044 112.965 160.504 113.414C160.968 113.864 161.332 114.437 161.597 115.133C161.863 115.824 161.995 116.648 161.995 117.605V118.393H153.053V116.66H159.531C159.526 116.168 159.419 115.73 159.211 115.346C159.003 114.958 158.712 114.653 158.338 114.43C157.968 114.208 157.537 114.096 157.045 114.096C156.519 114.096 156.058 114.224 155.66 114.48C155.262 114.731 154.952 115.062 154.73 115.474C154.512 115.881 154.4 116.329 154.396 116.816V118.329C154.396 118.964 154.512 119.508 154.744 119.963C154.976 120.413 155.3 120.758 155.717 121C156.133 121.236 156.621 121.355 157.18 121.355C157.554 121.355 157.892 121.303 158.195 121.199C158.498 121.09 158.761 120.931 158.984 120.723C159.206 120.514 159.374 120.256 159.488 119.949L161.889 120.218C161.737 120.853 161.448 121.407 161.022 121.88C160.601 122.349 160.061 122.714 159.403 122.974C158.745 123.23 157.992 123.358 157.144 123.358ZM179.189 113.244C179.071 112.86 178.907 112.517 178.699 112.214C178.495 111.906 178.249 111.644 177.96 111.426C177.676 111.208 177.35 111.045 176.98 110.936C176.611 110.822 176.209 110.765 175.773 110.765C174.992 110.765 174.296 110.962 173.685 111.355C173.074 111.748 172.593 112.325 172.243 113.088C171.897 113.845 171.725 114.769 171.725 115.858C171.725 116.956 171.897 117.886 172.243 118.649C172.589 119.411 173.069 119.991 173.685 120.389C174.3 120.782 175.015 120.978 175.83 120.978C176.568 120.978 177.208 120.836 177.747 120.552C178.292 120.268 178.711 119.866 179.004 119.345C179.298 118.819 179.445 118.204 179.445 117.498L180.041 117.591H176.093V115.531H181.995V117.278C181.995 118.523 181.729 119.6 181.199 120.51C180.669 121.419 179.94 122.119 179.012 122.612C178.084 123.1 177.018 123.343 175.816 123.343C174.476 123.343 173.299 123.043 172.286 122.441C171.277 121.835 170.489 120.976 169.921 119.863C169.357 118.746 169.075 117.42 169.075 115.886C169.075 114.712 169.241 113.663 169.573 112.74C169.909 111.816 170.378 111.033 170.979 110.389C171.58 109.74 172.286 109.248 173.095 108.912C173.905 108.571 174.786 108.4 175.737 108.4C176.542 108.4 177.293 108.519 177.989 108.755C178.685 108.987 179.303 109.319 179.843 109.75C180.387 110.181 180.834 110.692 181.185 111.284C181.535 111.876 181.765 112.529 181.874 113.244H179.189ZM191.482 118.556V112.235H194.053V123.145H191.56V121.206H191.446C191.2 121.816 190.795 122.316 190.232 122.704C189.673 123.092 188.984 123.287 188.165 123.287C187.45 123.287 186.818 123.128 186.269 122.811C185.724 122.489 185.298 122.022 184.99 121.412C184.683 120.796 184.529 120.053 184.529 119.181V112.235H187.1V118.784C187.1 119.475 187.289 120.024 187.668 120.431C188.047 120.839 188.544 121.042 189.16 121.042C189.538 121.042 189.905 120.95 190.26 120.765C190.615 120.581 190.907 120.306 191.134 119.941C191.366 119.572 191.482 119.11 191.482 118.556ZM199.936 123.365C199.245 123.365 198.622 123.242 198.068 122.995C197.519 122.744 197.083 122.375 196.761 121.887C196.444 121.4 196.285 120.798 196.285 120.083C196.285 119.468 196.399 118.959 196.626 118.556C196.854 118.154 197.164 117.832 197.557 117.591C197.95 117.349 198.392 117.167 198.885 117.044C199.382 116.916 199.896 116.824 200.426 116.767C201.065 116.7 201.584 116.641 201.981 116.589C202.379 116.532 202.668 116.447 202.848 116.333C203.033 116.215 203.125 116.033 203.125 115.787V115.744C203.125 115.209 202.966 114.795 202.649 114.501C202.332 114.208 201.875 114.061 201.278 114.061C200.649 114.061 200.149 114.198 199.78 114.473C199.415 114.747 199.169 115.072 199.041 115.446L196.641 115.105C196.83 114.442 197.142 113.888 197.578 113.443C198.014 112.993 198.546 112.657 199.176 112.434C199.806 112.207 200.502 112.093 201.264 112.093C201.79 112.093 202.313 112.155 202.834 112.278C203.355 112.401 203.83 112.605 204.261 112.889C204.692 113.168 205.038 113.549 205.298 114.032C205.563 114.515 205.696 115.119 205.696 115.843V123.145H203.224V121.646H203.139C202.983 121.949 202.763 122.233 202.479 122.498C202.199 122.759 201.847 122.969 201.42 123.13C200.999 123.287 200.504 123.365 199.936 123.365ZM200.604 121.475C201.12 121.475 201.567 121.374 201.946 121.17C202.325 120.962 202.616 120.687 202.82 120.346C203.028 120.005 203.132 119.634 203.132 119.231V117.946C203.052 118.012 202.914 118.074 202.72 118.13C202.531 118.187 202.318 118.237 202.081 118.279C201.844 118.322 201.61 118.36 201.378 118.393C201.146 118.426 200.945 118.455 200.774 118.478C200.391 118.53 200.047 118.616 199.744 118.734C199.441 118.852 199.202 119.018 199.027 119.231C198.852 119.44 198.764 119.709 198.764 120.041C198.764 120.514 198.937 120.872 199.283 121.113C199.628 121.355 200.069 121.475 200.604 121.475ZM208.381 123.145V112.235H210.874V114.054H210.988C211.187 113.424 211.527 112.939 212.01 112.598C212.498 112.252 213.054 112.079 213.679 112.079C213.822 112.079 213.98 112.086 214.155 112.1C214.335 112.11 214.484 112.127 214.603 112.15V114.515C214.494 114.477 214.321 114.444 214.084 114.416C213.852 114.383 213.627 114.366 213.41 114.366C212.941 114.366 212.519 114.468 212.145 114.672C211.776 114.87 211.485 115.147 211.272 115.502C211.059 115.858 210.952 116.267 210.952 116.731V123.145H208.381ZM219.355 123.365C218.663 123.365 218.041 123.242 217.487 122.995C216.938 122.744 216.502 122.375 216.18 121.887C215.863 121.4 215.704 120.798 215.704 120.083C215.704 119.468 215.818 118.959 216.045 118.556C216.272 118.154 216.583 117.832 216.975 117.591C217.368 117.349 217.811 117.167 218.304 117.044C218.801 116.916 219.315 116.824 219.845 116.767C220.484 116.7 221.002 116.641 221.4 116.589C221.798 116.532 222.087 116.447 222.267 116.333C222.451 116.215 222.544 116.033 222.544 115.787V115.744C222.544 115.209 222.385 114.795 222.068 114.501C221.751 114.208 221.294 114.061 220.697 114.061C220.067 114.061 219.568 114.198 219.199 114.473C218.834 114.747 218.588 115.072 218.46 115.446L216.059 115.105C216.249 114.442 216.561 113.888 216.997 113.443C217.432 112.993 217.965 112.657 218.595 112.434C219.225 112.207 219.921 112.093 220.683 112.093C221.208 112.093 221.732 112.155 222.252 112.278C222.773 112.401 223.249 112.605 223.68 112.889C224.111 113.168 224.457 113.549 224.717 114.032C224.982 114.515 225.115 115.119 225.115 115.843V123.145H222.643V121.646H222.558C222.402 121.949 222.181 122.233 221.897 122.498C221.618 122.759 221.265 122.969 220.839 123.13C220.418 123.287 219.923 123.365 219.355 123.365ZM220.022 121.475C220.538 121.475 220.986 121.374 221.365 121.17C221.743 120.962 222.035 120.687 222.238 120.346C222.447 120.005 222.551 119.634 222.551 119.231V117.946C222.47 118.012 222.333 118.074 222.139 118.13C221.949 118.187 221.736 118.237 221.5 118.279C221.263 118.322 221.029 118.36 220.797 118.393C220.565 118.426 220.363 118.455 220.193 118.478C219.809 118.53 219.466 118.616 219.163 118.734C218.86 118.852 218.621 119.018 218.446 119.231C218.27 119.44 218.183 119.709 218.183 120.041C218.183 120.514 218.356 120.872 218.701 121.113C219.047 121.355 219.487 121.475 220.022 121.475ZM230.371 116.752V123.145H227.8V112.235H230.257V114.089H230.385C230.636 113.478 231.036 112.993 231.585 112.633C232.139 112.273 232.824 112.093 233.638 112.093C234.391 112.093 235.047 112.254 235.605 112.576C236.169 112.898 236.604 113.365 236.912 113.975C237.225 114.586 237.379 115.327 237.374 116.199V123.145H234.803V116.596C234.803 115.867 234.613 115.297 234.235 114.885C233.861 114.473 233.342 114.267 232.679 114.267C232.229 114.267 231.829 114.366 231.479 114.565C231.133 114.759 230.861 115.041 230.662 115.41C230.468 115.779 230.371 116.227 230.371 116.752ZM245.535 112.235V114.224H239.264V112.235H245.535ZM240.812 109.622H243.383V119.863C243.383 120.209 243.435 120.474 243.539 120.659C243.648 120.839 243.79 120.962 243.965 121.028C244.14 121.094 244.335 121.127 244.548 121.127C244.709 121.127 244.855 121.116 244.988 121.092C245.125 121.068 245.229 121.047 245.3 121.028L245.734 123.038C245.596 123.085 245.4 123.137 245.144 123.194C244.893 123.251 244.586 123.284 244.221 123.294C243.577 123.313 242.997 123.216 242.481 123.002C241.965 122.785 241.555 122.449 241.252 121.994C240.954 121.539 240.807 120.971 240.812 120.289V109.622ZM252.497 123.358C251.404 123.358 250.459 123.13 249.664 122.676C248.873 122.217 248.264 121.568 247.838 120.73C247.412 119.887 247.199 118.895 247.199 117.754C247.199 116.632 247.412 115.647 247.838 114.799C248.269 113.947 248.871 113.284 249.642 112.811C250.414 112.333 251.321 112.093 252.363 112.093C253.035 112.093 253.669 112.202 254.266 112.42C254.867 112.633 255.398 112.965 255.857 113.414C256.321 113.864 256.685 114.437 256.951 115.133C257.216 115.824 257.348 116.648 257.348 117.605V118.393H248.407V116.66H254.884C254.879 116.168 254.773 115.73 254.564 115.346C254.356 114.958 254.065 114.653 253.691 114.43C253.321 114.208 252.89 114.096 252.398 114.096C251.872 114.096 251.411 114.224 251.013 114.48C250.615 114.731 250.305 115.062 250.083 115.474C249.865 115.881 249.754 116.329 249.749 116.816V118.329C249.749 118.964 249.865 119.508 250.097 119.963C250.329 120.413 250.653 120.758 251.07 121C251.487 121.236 251.974 121.355 252.533 121.355C252.907 121.355 253.246 121.303 253.549 121.199C253.852 121.09 254.114 120.931 254.337 120.723C254.559 120.514 254.728 120.256 254.841 119.949L257.242 120.218C257.09 120.853 256.801 121.407 256.375 121.88C255.954 122.349 255.414 122.714 254.756 122.974C254.098 123.23 253.345 123.358 252.497 123.358ZM264.453 123.358C263.359 123.358 262.415 123.13 261.619 122.676C260.828 122.217 260.22 121.568 259.794 120.73C259.368 119.887 259.155 118.895 259.155 117.754C259.155 116.632 259.368 115.647 259.794 114.799C260.225 113.947 260.826 113.284 261.598 112.811C262.37 112.333 263.276 112.093 264.318 112.093C264.99 112.093 265.625 112.202 266.221 112.42C266.823 112.633 267.353 112.965 267.812 113.414C268.276 113.864 268.641 114.437 268.906 115.133C269.171 115.824 269.304 116.648 269.304 117.605V118.393H260.362V116.66H266.839C266.835 116.168 266.728 115.73 266.52 115.346C266.311 114.958 266.02 114.653 265.646 114.43C265.277 114.208 264.846 114.096 264.353 114.096C263.828 114.096 263.366 114.224 262.969 114.48C262.571 114.731 262.261 115.062 262.038 115.474C261.82 115.881 261.709 116.329 261.704 116.816V118.329C261.704 118.964 261.82 119.508 262.052 119.963C262.284 120.413 262.609 120.758 263.025 121C263.442 121.236 263.93 121.355 264.488 121.355C264.862 121.355 265.201 121.303 265.504 121.199C265.807 121.09 266.07 120.931 266.292 120.723C266.515 120.514 266.683 120.256 266.797 119.949L269.197 120.218C269.046 120.853 268.757 121.407 268.331 121.88C267.909 122.349 267.37 122.714 266.711 122.974C266.053 123.23 265.3 123.358 264.453 123.358Z" fill="black"/>
<path opacity="0.7" d="M1.23295 154.145V143.963H4.79261C5.50189 143.963 6.08688 144.085 6.54759 144.331C7.00829 144.573 7.35133 144.899 7.5767 145.31C7.80208 145.718 7.91477 146.17 7.91477 146.667C7.91477 147.105 7.83688 147.466 7.68111 147.751C7.52865 148.036 7.32647 148.261 7.07457 148.427C6.82599 148.593 6.55587 148.716 6.2642 148.795V148.895C6.57576 148.914 6.88897 149.024 7.20384 149.223C7.5187 149.422 7.7822 149.707 7.99432 150.078C8.20644 150.449 8.3125 150.903 8.3125 151.44C8.3125 151.95 8.1965 152.409 7.96449 152.817C7.73248 153.225 7.36624 153.548 6.86577 153.787C6.36529 154.025 5.71402 154.145 4.91193 154.145H1.23295ZM2.46591 153.051H4.91193C5.71733 153.051 6.28906 152.895 6.62713 152.583C6.96851 152.269 7.1392 151.887 7.1392 151.44C7.1392 151.095 7.05137 150.777 6.87571 150.485C6.70005 150.19 6.44981 149.955 6.125 149.779C5.80019 149.6 5.41572 149.511 4.97159 149.511H2.46591V153.051ZM2.46591 148.437H4.75284C5.12405 148.437 5.45881 148.364 5.7571 148.218C6.05871 148.073 6.29735 147.867 6.47301 147.602C6.65199 147.337 6.74148 147.025 6.74148 146.667C6.74148 146.22 6.5857 145.84 6.27415 145.529C5.9626 145.214 5.46875 145.056 4.79261 145.056H2.46591V148.437ZM13.451 154.304C12.7152 154.304 12.0805 154.141 11.5469 153.816C11.0166 153.488 10.6073 153.031 10.3189 152.444C10.0339 151.854 9.89138 151.168 9.89138 150.386C9.89138 149.604 10.0339 148.914 10.3189 148.318C10.6073 147.718 11.0083 147.251 11.5221 146.916C12.0391 146.578 12.6423 146.409 13.3317 146.409C13.7294 146.409 14.1222 146.475 14.51 146.608C14.8978 146.74 15.2508 146.956 15.5689 147.254C15.8871 147.549 16.1407 147.94 16.3296 148.427C16.5185 148.914 16.613 149.514 16.613 150.227V150.724H10.7266V149.71H15.4198C15.4198 149.279 15.3336 148.895 15.1613 148.556C14.9922 148.218 14.7503 147.952 14.4354 147.756C14.1239 147.56 13.756 147.463 13.3317 147.463C12.8644 147.463 12.46 147.579 12.1187 147.811C11.7806 148.039 11.5204 148.338 11.3381 148.706C11.1558 149.074 11.0647 149.468 11.0647 149.889V150.565C11.0647 151.142 11.1641 151.631 11.363 152.032C11.5651 152.429 11.8452 152.733 12.2032 152.941C12.5611 153.147 12.9771 153.25 13.451 153.25C13.7593 153.25 14.0377 153.207 14.2863 153.12C14.5382 153.031 14.7553 152.898 14.9375 152.723C15.1198 152.544 15.2607 152.322 15.3601 152.056L16.4937 152.375C16.3743 152.759 16.1738 153.097 15.8921 153.389C15.6104 153.677 15.2624 153.903 14.8481 154.065C14.4338 154.224 13.9681 154.304 13.451 154.304ZM23.8769 148.218L22.8229 148.517C22.7566 148.341 22.6588 148.17 22.5296 148.005C22.4036 147.836 22.2313 147.696 22.0125 147.587C21.7938 147.478 21.5137 147.423 21.1723 147.423C20.705 147.423 20.3155 147.531 20.004 147.746C19.6958 147.958 19.5416 148.228 19.5416 148.556C19.5416 148.848 19.6477 149.078 19.8598 149.248C20.0719 149.417 20.4034 149.557 20.8541 149.67L21.9877 149.949C22.6704 150.114 23.1792 150.368 23.5139 150.709C23.8487 151.047 24.0161 151.483 24.0161 152.017C24.0161 152.454 23.8901 152.845 23.6382 153.19C23.3896 153.535 23.0416 153.806 22.5942 154.005C22.1467 154.204 21.6264 154.304 21.0331 154.304C20.2542 154.304 19.6096 154.135 19.0992 153.797C18.5887 153.458 18.2656 152.965 18.1297 152.315L19.2433 152.037C19.3494 152.448 19.5499 152.756 19.8449 152.961C20.1432 153.167 20.5326 153.27 21.0132 153.27C21.5601 153.27 21.9943 153.154 22.3158 152.922C22.6406 152.686 22.803 152.404 22.803 152.076C22.803 151.811 22.7102 151.589 22.5246 151.41C22.339 151.228 22.0539 151.092 21.6695 151.002L20.3967 150.704C19.6974 150.538 19.1837 150.282 18.8556 149.934C18.5307 149.582 18.3683 149.143 18.3683 148.616C18.3683 148.185 18.4893 147.804 18.7313 147.473C18.9765 147.141 19.3096 146.881 19.7306 146.692C20.1548 146.503 20.6354 146.409 21.1723 146.409C21.928 146.409 22.5213 146.574 22.9521 146.906C23.3863 147.237 23.6946 147.675 23.8769 148.218ZM29.1732 146.508V147.502H25.2159V146.508H29.1732ZM26.3693 144.679H27.5426V151.957C27.5426 152.288 27.5906 152.537 27.6867 152.703C27.7862 152.865 27.9121 152.975 28.0646 153.031C28.2204 153.084 28.3844 153.11 28.5568 153.11C28.686 153.11 28.7921 153.104 28.8749 153.091C28.9578 153.074 29.0241 153.061 29.0738 153.051L29.3124 154.105C29.2329 154.135 29.1219 154.164 28.9794 154.194C28.8368 154.227 28.6562 154.244 28.4374 154.244C28.106 154.244 27.7812 154.173 27.463 154.03C27.1482 153.888 26.8863 153.671 26.6775 153.379C26.472 153.087 26.3693 152.719 26.3693 152.275V144.679ZM35.1747 154.145V143.963H38.6151C39.4105 143.963 40.0635 144.099 40.5739 144.37C41.0843 144.639 41.4622 145.008 41.7074 145.479C41.9527 145.95 42.0753 146.485 42.0753 147.085C42.0753 147.685 41.9527 148.217 41.7074 148.681C41.4622 149.145 41.086 149.509 40.5789 149.775C40.0718 150.036 39.4238 150.167 38.635 150.167H35.8509V149.054H38.5952C39.1388 149.054 39.5763 148.974 39.9077 148.815C40.2425 148.656 40.4844 148.431 40.6336 148.139C40.786 147.844 40.8622 147.493 40.8622 147.085C40.8622 146.677 40.786 146.321 40.6336 146.016C40.4811 145.711 40.2375 145.476 39.9027 145.31C39.568 145.141 39.1255 145.056 38.5753 145.056H36.4077V154.145H35.1747ZM39.9674 149.571L42.473 154.145H41.0412L38.5753 149.571H39.9674ZM47.1604 154.304C46.4246 154.304 45.7899 154.141 45.2563 153.816C44.726 153.488 44.3167 153.031 44.0283 152.444C43.7433 151.854 43.6008 151.168 43.6008 150.386C43.6008 149.604 43.7433 148.914 44.0283 148.318C44.3167 147.718 44.7177 147.251 45.2314 146.916C45.7485 146.578 46.3517 146.409 47.0411 146.409C47.4388 146.409 47.8316 146.475 48.2194 146.608C48.6071 146.74 48.9601 146.956 49.2783 147.254C49.5965 147.549 49.85 147.94 50.039 148.427C50.2279 148.914 50.3223 149.514 50.3223 150.227V150.724H44.436V149.71H49.1292C49.1292 149.279 49.043 148.895 48.8706 148.556C48.7016 148.218 48.4597 147.952 48.1448 147.756C47.8332 147.56 47.4653 147.463 47.0411 147.463C46.5738 147.463 46.1694 147.579 45.828 147.811C45.49 148.039 45.2298 148.338 45.0475 148.706C44.8652 149.074 44.774 149.468 44.774 149.889V150.565C44.774 151.142 44.8735 151.631 45.0723 152.032C45.2745 152.429 45.5546 152.733 45.9125 152.941C46.2705 153.147 46.6865 153.25 47.1604 153.25C47.4686 153.25 47.7471 153.207 47.9956 153.12C48.2475 153.031 48.4646 152.898 48.6469 152.723C48.8292 152.544 48.9701 152.322 49.0695 152.056L50.203 152.375C50.0837 152.759 49.8832 153.097 49.6015 153.389C49.3197 153.677 48.9717 153.903 48.5574 154.065C48.1431 154.224 47.6775 154.304 47.1604 154.304ZM55.2794 154.304C54.5635 154.304 53.947 154.135 53.43 153.797C52.9129 153.458 52.5152 152.993 52.2368 152.4C51.9584 151.806 51.8192 151.128 51.8192 150.366C51.8192 149.591 51.9617 148.906 52.2467 148.313C52.5351 147.716 52.9361 147.251 53.4499 146.916C53.9669 146.578 54.5701 146.409 55.2595 146.409C55.7965 146.409 56.2804 146.508 56.7112 146.707C57.1421 146.906 57.4951 147.184 57.7702 147.542C58.0453 147.9 58.216 148.318 58.2823 148.795H57.109C57.0195 148.447 56.8206 148.139 56.5124 147.87C56.2074 147.599 55.7965 147.463 55.2794 147.463C54.822 147.463 54.421 147.582 54.0763 147.821C53.7349 148.056 53.4681 148.389 53.2759 148.82C53.0869 149.248 52.9925 149.75 52.9925 150.326C52.9925 150.916 53.0853 151.43 53.2709 151.868C53.4598 152.305 53.725 152.645 54.0664 152.887C54.411 153.129 54.8154 153.25 55.2794 153.25C55.5843 153.25 55.8611 153.197 56.1097 153.091C56.3583 152.984 56.5687 152.832 56.7411 152.633C56.9134 152.434 57.036 152.196 57.109 151.917H58.2823C58.216 152.368 58.0519 152.774 57.7901 153.135C57.5316 153.493 57.1885 153.778 56.761 153.99C56.3367 154.199 55.8429 154.304 55.2794 154.304ZM63.1697 154.304C62.4803 154.304 61.8755 154.14 61.3551 153.811C60.8381 153.483 60.4337 153.024 60.142 152.434C59.8537 151.844 59.7095 151.155 59.7095 150.366C59.7095 149.571 59.8537 148.876 60.142 148.283C60.4337 147.69 60.8381 147.229 61.3551 146.901C61.8755 146.573 62.4803 146.409 63.1697 146.409C63.8591 146.409 64.4623 146.573 64.9794 146.901C65.4998 147.229 65.9041 147.69 66.1925 148.283C66.4841 148.876 66.63 149.571 66.63 150.366C66.63 151.155 66.4841 151.844 66.1925 152.434C65.9041 153.024 65.4998 153.483 64.9794 153.811C64.4623 154.14 63.8591 154.304 63.1697 154.304ZM63.1697 153.25C63.6934 153.25 64.1243 153.115 64.4623 152.847C64.8004 152.578 65.0507 152.225 65.2131 151.788C65.3755 151.35 65.4567 150.877 65.4567 150.366C65.4567 149.856 65.3755 149.38 65.2131 148.939C65.0507 148.498 64.8004 148.142 64.4623 147.87C64.1243 147.599 63.6934 147.463 63.1697 147.463C62.6461 147.463 62.2152 147.599 61.8771 147.87C61.539 148.142 61.2888 148.498 61.1264 148.939C60.964 149.38 60.8828 149.856 60.8828 150.366C60.8828 150.877 60.964 151.35 61.1264 151.788C61.2888 152.225 61.539 152.578 61.8771 152.847C62.2152 153.115 62.6461 153.25 63.1697 153.25ZM68.491 154.145V146.508H69.6245V147.701H69.7239C69.883 147.294 70.1399 146.977 70.4945 146.752C70.8492 146.523 71.2751 146.409 71.7722 146.409C72.276 146.409 72.6953 146.523 73.03 146.752C73.3681 146.977 73.6316 147.294 73.8205 147.701H73.9001C74.0956 147.307 74.3889 146.994 74.78 146.762C75.1711 146.526 75.6401 146.409 76.187 146.409C76.8698 146.409 77.4282 146.623 77.8624 147.05C78.2966 147.474 78.5137 148.136 78.5137 149.034V154.145H77.3404V149.034C77.3404 148.47 77.1863 148.068 76.878 147.826C76.5698 147.584 76.2069 147.463 75.7893 147.463C75.2523 147.463 74.8364 147.625 74.5414 147.95C74.2464 148.271 74.0989 148.679 74.0989 149.173V154.145H72.9057V148.914C72.9057 148.48 72.7649 148.131 72.4832 147.865C72.2014 147.597 71.8385 147.463 71.3944 147.463C71.0895 147.463 70.8044 147.544 70.5393 147.706C70.2774 147.869 70.0653 148.094 69.9029 148.382C69.7438 148.667 69.6643 148.997 69.6643 149.372V154.145H68.491ZM80.7289 154.145V146.508H81.8625V147.701H81.9619C82.121 147.294 82.3778 146.977 82.7325 146.752C83.0871 146.523 83.513 146.409 84.0102 146.409C84.514 146.409 84.9332 146.523 85.268 146.752C85.6061 146.977 85.8696 147.294 86.0585 147.701H86.138C86.3336 147.307 86.6269 146.994 87.018 146.762C87.4091 146.526 87.8781 146.409 88.425 146.409C89.1077 146.409 89.6662 146.623 90.1004 147.05C90.5346 147.474 90.7517 148.136 90.7517 149.034V154.145H89.5784V149.034C89.5784 148.47 89.4243 148.068 89.116 147.826C88.8078 147.584 88.4448 147.463 88.0272 147.463C87.4903 147.463 87.0743 147.625 86.7794 147.95C86.4844 148.271 86.3369 148.679 86.3369 149.173V154.145H85.1437V148.914C85.1437 148.48 85.0028 148.131 84.7211 147.865C84.4394 147.597 84.0765 147.463 83.6323 147.463C83.3274 147.463 83.0424 147.544 82.7772 147.706C82.5154 147.869 82.3033 148.094 82.1409 148.382C81.9818 148.667 81.9022 148.997 81.9022 149.372V154.145H80.7289ZM96.1686 154.304C95.4328 154.304 94.7981 154.141 94.2645 153.816C93.7342 153.488 93.3249 153.031 93.0365 152.444C92.7515 151.854 92.609 151.168 92.609 150.386C92.609 149.604 92.7515 148.914 93.0365 148.318C93.3249 147.718 93.7259 147.251 94.2396 146.916C94.7567 146.578 95.3599 146.409 96.0493 146.409C96.447 146.409 96.8398 146.475 97.2276 146.608C97.6153 146.74 97.9683 146.956 98.2865 147.254C98.6047 147.549 98.8582 147.94 99.0472 148.427C99.2361 148.914 99.3305 149.514 99.3305 150.227V150.724H93.4442V149.71H98.1374C98.1374 149.279 98.0512 148.895 97.8788 148.556C97.7098 148.218 97.4679 147.952 97.153 147.756C96.8414 147.56 96.4735 147.463 96.0493 147.463C95.582 147.463 95.1776 147.579 94.8362 147.811C94.4982 148.039 94.238 148.338 94.0557 148.706C93.8734 149.074 93.7822 149.468 93.7822 149.889V150.565C93.7822 151.142 93.8817 151.631 94.0805 152.032C94.2827 152.429 94.5628 152.733 94.9207 152.941C95.2787 153.147 95.6947 153.25 96.1686 153.25C96.4769 153.25 96.7553 153.207 97.0038 153.12C97.2557 153.031 97.4728 152.898 97.6551 152.723C97.8374 152.544 97.9783 152.322 98.0777 152.056L99.2112 152.375C99.0919 152.759 98.8914 153.097 98.6097 153.389C98.3279 153.677 97.9799 153.903 97.5656 154.065C97.1513 154.224 96.6857 154.304 96.1686 154.304ZM102.359 149.551V154.145H101.185V146.508H102.319V147.701H102.418C102.597 147.314 102.869 147.002 103.234 146.767C103.598 146.528 104.069 146.409 104.646 146.409C105.163 146.409 105.615 146.515 106.003 146.727C106.391 146.936 106.692 147.254 106.908 147.681C107.123 148.106 107.231 148.643 107.231 149.292V154.145H106.058V149.372C106.058 148.772 105.902 148.305 105.59 147.97C105.279 147.632 104.851 147.463 104.308 147.463C103.933 147.463 103.598 147.544 103.303 147.706C103.012 147.869 102.781 148.106 102.612 148.417C102.443 148.729 102.359 149.107 102.359 149.551ZM112.328 154.304C111.692 154.304 111.13 154.143 110.643 153.821C110.156 153.497 109.775 153.039 109.499 152.449C109.224 151.856 109.087 151.155 109.087 150.346C109.087 149.544 109.224 148.848 109.499 148.258C109.775 147.668 110.157 147.212 110.648 146.891C111.138 146.569 111.705 146.409 112.348 146.409C112.845 146.409 113.238 146.492 113.526 146.657C113.818 146.82 114.04 147.005 114.193 147.214C114.348 147.42 114.469 147.589 114.556 147.721H114.655V143.963H115.828V154.145H114.695V152.971H114.556C114.469 153.11 114.347 153.286 114.188 153.498C114.029 153.707 113.802 153.894 113.507 154.06C113.212 154.222 112.819 154.304 112.328 154.304ZM112.487 153.25C112.958 153.25 113.356 153.127 113.681 152.882C114.005 152.633 114.252 152.29 114.421 151.853C114.59 151.412 114.675 150.903 114.675 150.326C114.675 149.756 114.592 149.257 114.426 148.83C114.261 148.399 114.015 148.064 113.691 147.826C113.366 147.584 112.965 147.463 112.487 147.463C111.99 147.463 111.576 147.59 111.245 147.846C110.916 148.097 110.669 148.44 110.504 148.875C110.341 149.306 110.26 149.789 110.26 150.326C110.26 150.87 110.343 151.364 110.509 151.808C110.678 152.249 110.926 152.6 111.254 152.862C111.586 153.12 111.997 153.25 112.487 153.25ZM120.457 154.324C119.973 154.324 119.534 154.232 119.14 154.05C118.745 153.864 118.432 153.598 118.2 153.25C117.968 152.898 117.852 152.474 117.852 151.977C117.852 151.539 117.938 151.185 118.111 150.913C118.283 150.638 118.513 150.422 118.802 150.267C119.09 150.111 119.408 149.995 119.756 149.919C120.108 149.839 120.461 149.776 120.815 149.73C121.279 149.67 121.655 149.625 121.944 149.596C122.235 149.562 122.448 149.508 122.58 149.431C122.716 149.355 122.784 149.223 122.784 149.034V148.994C122.784 148.503 122.65 148.122 122.381 147.85C122.116 147.579 121.713 147.443 121.173 147.443C120.613 147.443 120.174 147.565 119.856 147.811C119.538 148.056 119.314 148.318 119.185 148.596L118.071 148.199C118.27 147.734 118.535 147.373 118.866 147.115C119.201 146.853 119.566 146.671 119.96 146.568C120.358 146.462 120.749 146.409 121.133 146.409C121.379 146.409 121.66 146.439 121.979 146.498C122.3 146.555 122.61 146.672 122.908 146.851C123.21 147.03 123.46 147.3 123.659 147.662C123.858 148.023 123.957 148.507 123.957 149.113V154.145H122.784V153.11H122.724C122.645 153.276 122.512 153.453 122.327 153.642C122.141 153.831 121.894 153.992 121.586 154.125C121.278 154.257 120.901 154.324 120.457 154.324ZM120.636 153.27C121.1 153.27 121.491 153.178 121.81 152.996C122.131 152.814 122.373 152.578 122.535 152.29C122.701 152.002 122.784 151.699 122.784 151.38V150.306C122.734 150.366 122.625 150.421 122.456 150.471C122.29 150.517 122.098 150.558 121.879 150.595C121.664 150.628 121.453 150.658 121.248 150.684C121.046 150.708 120.882 150.727 120.756 150.744C120.451 150.784 120.166 150.848 119.9 150.938C119.639 151.024 119.426 151.155 119.264 151.331C119.105 151.503 119.025 151.738 119.025 152.037C119.025 152.444 119.176 152.752 119.478 152.961C119.783 153.167 120.169 153.27 120.636 153.27ZM129.49 146.508V147.502H125.532V146.508H129.49ZM126.686 144.679H127.859V151.957C127.859 152.288 127.907 152.537 128.003 152.703C128.103 152.865 128.229 152.975 128.381 153.031C128.537 153.084 128.701 153.11 128.873 153.11C129.003 153.11 129.109 153.104 129.192 153.091C129.274 153.074 129.341 153.061 129.39 153.051L129.629 154.105C129.549 154.135 129.438 154.164 129.296 154.194C129.153 154.227 128.973 154.244 128.754 154.244C128.423 154.244 128.098 154.173 127.78 154.03C127.465 153.888 127.203 153.671 126.994 153.379C126.789 153.087 126.686 152.719 126.686 152.275V144.679ZM131.325 154.145V146.508H132.498V154.145H131.325ZM131.921 145.235C131.693 145.235 131.495 145.158 131.33 145.002C131.167 144.846 131.086 144.659 131.086 144.44C131.086 144.221 131.167 144.034 131.33 143.878C131.495 143.722 131.693 143.645 131.921 143.645C132.15 143.645 132.346 143.722 132.508 143.878C132.674 144.034 132.757 144.221 132.757 144.44C132.757 144.659 132.674 144.846 132.508 145.002C132.346 145.158 132.15 145.235 131.921 145.235ZM137.819 154.304C137.13 154.304 136.525 154.14 136.005 153.811C135.488 153.483 135.083 153.024 134.792 152.434C134.503 151.844 134.359 151.155 134.359 150.366C134.359 149.571 134.503 148.876 134.792 148.283C135.083 147.69 135.488 147.229 136.005 146.901C136.525 146.573 137.13 146.409 137.819 146.409C138.509 146.409 139.112 146.573 139.629 146.901C140.149 147.229 140.554 147.69 140.842 148.283C141.134 148.876 141.279 149.571 141.279 150.366C141.279 151.155 141.134 151.844 140.842 152.434C140.554 153.024 140.149 153.483 139.629 153.811C139.112 154.14 138.509 154.304 137.819 154.304ZM137.819 153.25C138.343 153.25 138.774 153.115 139.112 152.847C139.45 152.578 139.7 152.225 139.863 151.788C140.025 151.35 140.106 150.877 140.106 150.366C140.106 149.856 140.025 149.38 139.863 148.939C139.7 148.498 139.45 148.142 139.112 147.87C138.774 147.599 138.343 147.463 137.819 147.463C137.296 147.463 136.865 147.599 136.527 147.87C136.189 148.142 135.938 148.498 135.776 148.939C135.614 149.38 135.532 149.856 135.532 150.366C135.532 150.877 135.614 151.35 135.776 151.788C135.938 152.225 136.189 152.578 136.527 152.847C136.865 153.115 137.296 153.25 137.819 153.25ZM144.314 149.551V154.145H143.14V146.508H144.274V147.701H144.373C144.552 147.314 144.824 147.002 145.189 146.767C145.553 146.528 146.024 146.409 146.601 146.409C147.118 146.409 147.57 146.515 147.958 146.727C148.346 146.936 148.647 147.254 148.863 147.681C149.078 148.106 149.186 148.643 149.186 149.292V154.145H148.013V149.372C148.013 148.772 147.857 148.305 147.545 147.97C147.234 147.632 146.806 147.463 146.263 147.463C145.888 147.463 145.553 147.544 145.258 147.706C144.967 147.869 144.736 148.106 144.567 148.417C144.398 148.729 144.314 149.107 144.314 149.551ZM156.809 148.218L155.755 148.517C155.689 148.341 155.591 148.17 155.462 148.005C155.336 147.836 155.163 147.696 154.945 147.587C154.726 147.478 154.446 147.423 154.105 147.423C153.637 147.423 153.248 147.531 152.936 147.746C152.628 147.958 152.474 148.228 152.474 148.556C152.474 148.848 152.58 149.078 152.792 149.248C153.004 149.417 153.336 149.557 153.786 149.67L154.92 149.949C155.603 150.114 156.111 150.368 156.446 150.709C156.781 151.047 156.948 151.483 156.948 152.017C156.948 152.454 156.822 152.845 156.57 153.19C156.322 153.535 155.974 153.806 155.526 154.005C155.079 154.204 154.559 154.304 153.965 154.304C153.186 154.304 152.542 154.135 152.031 153.797C151.521 153.458 151.198 152.965 151.062 152.315L152.176 152.037C152.282 152.448 152.482 152.756 152.777 152.961C153.075 153.167 153.465 153.27 153.945 153.27C154.492 153.27 154.926 153.154 155.248 152.922C155.573 152.686 155.735 152.404 155.735 152.076C155.735 151.811 155.642 151.589 155.457 151.41C155.271 151.228 154.986 151.092 154.602 151.002L153.329 150.704C152.63 150.538 152.116 150.282 151.788 149.934C151.463 149.582 151.301 149.143 151.301 148.616C151.301 148.185 151.422 147.804 151.663 147.473C151.909 147.141 152.242 146.881 152.663 146.692C153.087 146.503 153.568 146.409 154.105 146.409C154.86 146.409 155.453 146.574 155.884 146.906C156.319 147.237 156.627 147.675 156.809 148.218ZM165.039 154.324C164.555 154.324 164.116 154.232 163.722 154.05C163.327 153.864 163.014 153.598 162.782 153.25C162.55 152.898 162.434 152.474 162.434 151.977C162.434 151.539 162.52 151.185 162.692 150.913C162.865 150.638 163.095 150.422 163.384 150.267C163.672 150.111 163.99 149.995 164.338 149.919C164.689 149.839 165.042 149.776 165.397 149.73C165.861 149.67 166.237 149.625 166.526 149.596C166.817 149.562 167.029 149.508 167.162 149.431C167.298 149.355 167.366 149.223 167.366 149.034V148.994C167.366 148.503 167.232 148.122 166.963 147.85C166.698 147.579 166.295 147.443 165.755 147.443C165.195 147.443 164.756 147.565 164.438 147.811C164.119 148.056 163.896 148.318 163.766 148.596L162.653 148.199C162.852 147.734 163.117 147.373 163.448 147.115C163.783 146.853 164.147 146.671 164.542 146.568C164.94 146.462 165.331 146.409 165.715 146.409C165.96 146.409 166.242 146.439 166.56 146.498C166.882 146.555 167.192 146.672 167.49 146.851C167.792 147.03 168.042 147.3 168.241 147.662C168.44 148.023 168.539 148.507 168.539 149.113V154.145H167.366V153.11H167.306C167.227 153.276 167.094 153.453 166.908 153.642C166.723 153.831 166.476 153.992 166.168 154.125C165.859 154.257 165.483 154.324 165.039 154.324ZM165.218 153.27C165.682 153.27 166.073 153.178 166.391 152.996C166.713 152.814 166.955 152.578 167.117 152.29C167.283 152.002 167.366 151.699 167.366 151.38V150.306C167.316 150.366 167.207 150.421 167.038 150.471C166.872 150.517 166.68 150.558 166.461 150.595C166.246 150.628 166.035 150.658 165.83 150.684C165.627 150.708 165.463 150.727 165.337 150.744C165.032 150.784 164.747 150.848 164.482 150.938C164.22 151.024 164.008 151.155 163.846 151.331C163.687 151.503 163.607 151.738 163.607 152.037C163.607 152.444 163.758 152.752 164.06 152.961C164.365 153.167 164.751 153.27 165.218 153.27ZM173.853 154.304C173.137 154.304 172.52 154.135 172.003 153.797C171.486 153.458 171.089 152.993 170.81 152.4C170.532 151.806 170.393 151.128 170.393 150.366C170.393 149.591 170.535 148.906 170.82 148.313C171.109 147.716 171.51 147.251 172.023 146.916C172.54 146.578 173.144 146.409 173.833 146.409C174.37 146.409 174.854 146.508 175.285 146.707C175.716 146.906 176.069 147.184 176.344 147.542C176.619 147.9 176.789 148.318 176.856 148.795H175.682C175.593 148.447 175.394 148.139 175.086 147.87C174.781 147.599 174.37 147.463 173.853 147.463C173.395 147.463 172.994 147.582 172.65 147.821C172.308 148.056 172.042 148.389 171.849 148.82C171.66 149.248 171.566 149.75 171.566 150.326C171.566 150.916 171.659 151.43 171.844 151.868C172.033 152.305 172.298 152.645 172.64 152.887C172.984 153.129 173.389 153.25 173.853 153.25C174.158 153.25 174.435 153.197 174.683 153.091C174.932 152.984 175.142 152.832 175.314 152.633C175.487 152.434 175.609 152.196 175.682 151.917H176.856C176.789 152.368 176.625 152.774 176.364 153.135C176.105 153.493 175.762 153.778 175.334 153.99C174.91 154.199 174.416 154.304 173.853 154.304ZM181.743 154.304C181.027 154.304 180.411 154.135 179.894 153.797C179.377 153.458 178.979 152.993 178.701 152.4C178.422 151.806 178.283 151.128 178.283 150.366C178.283 149.591 178.425 148.906 178.71 148.313C178.999 147.716 179.4 147.251 179.914 146.916C180.431 146.578 181.034 146.409 181.723 146.409C182.26 146.409 182.744 146.508 183.175 146.707C183.606 146.906 183.959 147.184 184.234 147.542C184.509 147.9 184.68 148.318 184.746 148.795H183.573C183.483 148.447 183.284 148.139 182.976 147.87C182.671 147.599 182.26 147.463 181.743 147.463C181.286 147.463 180.885 147.582 180.54 147.821C180.199 148.056 179.932 148.389 179.74 148.82C179.551 149.248 179.456 149.75 179.456 150.326C179.456 150.916 179.549 151.43 179.735 151.868C179.924 152.305 180.189 152.645 180.53 152.887C180.875 153.129 181.279 153.25 181.743 153.25C182.048 153.25 182.325 153.197 182.573 153.091C182.822 152.984 183.032 152.832 183.205 152.633C183.377 152.434 183.5 152.196 183.573 151.917H184.746C184.68 152.368 184.516 152.774 184.254 153.135C183.995 153.493 183.652 153.778 183.225 153.99C182.8 154.199 182.307 154.304 181.743 154.304ZM189.633 154.304C188.944 154.304 188.339 154.14 187.819 153.811C187.302 153.483 186.897 153.024 186.606 152.434C186.317 151.844 186.173 151.155 186.173 150.366C186.173 149.571 186.317 148.876 186.606 148.283C186.897 147.69 187.302 147.229 187.819 146.901C188.339 146.573 188.944 146.409 189.633 146.409C190.323 146.409 190.926 146.573 191.443 146.901C191.963 147.229 192.368 147.69 192.656 148.283C192.948 148.876 193.094 149.571 193.094 150.366C193.094 151.155 192.948 151.844 192.656 152.434C192.368 153.024 191.963 153.483 191.443 153.811C190.926 154.14 190.323 154.304 189.633 154.304ZM189.633 153.25C190.157 153.25 190.588 153.115 190.926 152.847C191.264 152.578 191.514 152.225 191.677 151.788C191.839 151.35 191.92 150.877 191.92 150.366C191.92 149.856 191.839 149.38 191.677 148.939C191.514 148.498 191.264 148.142 190.926 147.87C190.588 147.599 190.157 147.463 189.633 147.463C189.11 147.463 188.679 147.599 188.341 147.87C188.003 148.142 187.753 148.498 187.59 148.939C187.428 149.38 187.347 149.856 187.347 150.366C187.347 150.877 187.428 151.35 187.59 151.788C187.753 152.225 188.003 152.578 188.341 152.847C188.679 153.115 189.11 153.25 189.633 153.25ZM194.955 154.145V146.508H196.088V147.662H196.168C196.307 147.284 196.559 146.977 196.923 146.742C197.288 146.507 197.699 146.389 198.156 146.389C198.243 146.389 198.35 146.391 198.48 146.394C198.609 146.397 198.707 146.402 198.773 146.409V147.602C198.733 147.592 198.642 147.577 198.499 147.557C198.36 147.534 198.213 147.522 198.057 147.522C197.686 147.522 197.354 147.6 197.063 147.756C196.774 147.908 196.546 148.121 196.377 148.392C196.211 148.661 196.128 148.967 196.128 149.312V154.145H194.955ZM202.885 154.304C202.248 154.304 201.687 154.143 201.199 153.821C200.712 153.497 200.331 153.039 200.056 152.449C199.781 151.856 199.643 151.155 199.643 150.346C199.643 149.544 199.781 148.848 200.056 148.258C200.331 147.668 200.714 147.212 201.204 146.891C201.695 146.569 202.262 146.409 202.905 146.409C203.402 146.409 203.795 146.492 204.083 146.657C204.375 146.82 204.597 147.005 204.749 147.214C204.905 147.42 205.026 147.589 205.112 147.721H205.212V143.963H206.385V154.145H205.251V152.971H205.112C205.026 153.11 204.903 153.286 204.744 153.498C204.585 153.707 204.358 153.894 204.063 154.06C203.768 154.222 203.375 154.304 202.885 154.304ZM203.044 153.25C203.515 153.25 203.912 153.127 204.237 152.882C204.562 152.633 204.809 152.29 204.978 151.853C205.147 151.412 205.231 150.903 205.231 150.326C205.231 149.756 205.149 149.257 204.983 148.83C204.817 148.399 204.572 148.064 204.247 147.826C203.922 147.584 203.521 147.463 203.044 147.463C202.547 147.463 202.132 147.59 201.801 147.846C201.473 148.097 201.226 148.44 201.06 148.875C200.898 149.306 200.817 149.789 200.817 150.326C200.817 150.87 200.899 151.364 201.065 151.808C201.234 152.249 201.483 152.6 201.811 152.862C202.142 153.12 202.553 153.25 203.044 153.25ZM208.767 154.145V146.508H209.94V154.145H208.767ZM209.363 145.235C209.134 145.235 208.937 145.158 208.772 145.002C208.609 144.846 208.528 144.659 208.528 144.44C208.528 144.221 208.609 144.034 208.772 143.878C208.937 143.722 209.134 143.645 209.363 143.645C209.592 143.645 209.787 143.722 209.95 143.878C210.116 144.034 210.198 144.221 210.198 144.44C210.198 144.659 210.116 144.846 209.95 145.002C209.787 145.158 209.592 145.235 209.363 145.235ZM213.332 149.551V154.145H212.159V146.508H213.292V147.701H213.392C213.571 147.314 213.843 147.002 214.207 146.767C214.572 146.528 215.042 146.409 215.619 146.409C216.136 146.409 216.589 146.515 216.976 146.727C217.364 146.936 217.666 147.254 217.881 147.681C218.097 148.106 218.204 148.643 218.204 149.292V154.145H217.031V149.372C217.031 148.772 216.875 148.305 216.564 147.97C216.252 147.632 215.825 147.463 215.281 147.463C214.907 147.463 214.572 147.544 214.277 147.706C213.985 147.869 213.755 148.106 213.586 148.417C213.417 148.729 213.332 149.107 213.332 149.551ZM223.501 157.167C222.934 157.167 222.447 157.094 222.039 156.949C221.631 156.806 221.292 156.617 221.02 156.382C220.751 156.15 220.538 155.901 220.379 155.636L221.313 154.98C221.419 155.119 221.553 155.278 221.716 155.457C221.878 155.639 222.1 155.797 222.382 155.929C222.667 156.065 223.04 156.133 223.501 156.133C224.117 156.133 224.626 155.984 225.027 155.686C225.428 155.387 225.629 154.92 225.629 154.284V152.733H225.529C225.443 152.872 225.32 153.044 225.161 153.25C225.005 153.452 224.78 153.632 224.485 153.792C224.193 153.947 223.799 154.025 223.302 154.025C222.685 154.025 222.132 153.879 221.641 153.588C221.154 153.296 220.768 152.872 220.483 152.315C220.201 151.758 220.06 151.082 220.06 150.287C220.06 149.504 220.198 148.823 220.473 148.243C220.748 147.66 221.131 147.209 221.621 146.891C222.112 146.569 222.679 146.409 223.322 146.409C223.819 146.409 224.213 146.492 224.505 146.657C224.8 146.82 225.025 147.005 225.181 147.214C225.34 147.42 225.463 147.589 225.549 147.721H225.668V146.508H226.802V154.363C226.802 155.02 226.653 155.553 226.354 155.964C226.059 156.378 225.662 156.682 225.161 156.874C224.664 157.069 224.111 157.167 223.501 157.167ZM223.461 152.971C223.932 152.971 224.329 152.864 224.654 152.648C224.979 152.433 225.226 152.123 225.395 151.718C225.564 151.314 225.648 150.83 225.648 150.267C225.648 149.717 225.566 149.231 225.4 148.81C225.234 148.389 224.989 148.059 224.664 147.821C224.339 147.582 223.938 147.463 223.461 147.463C222.964 147.463 222.549 147.589 222.218 147.841C221.89 148.092 221.643 148.431 221.477 148.855C221.315 149.279 221.234 149.75 221.234 150.267C221.234 150.797 221.317 151.266 221.482 151.674C221.651 152.078 221.9 152.396 222.228 152.628C222.559 152.857 222.97 152.971 223.461 152.971ZM236.348 146.508V147.502H232.391V146.508H236.348ZM233.544 144.679H234.717V151.957C234.717 152.288 234.765 152.537 234.862 152.703C234.961 152.865 235.087 152.975 235.239 153.031C235.395 153.084 235.559 153.11 235.732 153.11C235.861 153.11 235.967 153.104 236.05 153.091C236.133 153.074 236.199 153.061 236.249 153.051L236.487 154.105C236.408 154.135 236.297 154.164 236.154 154.194C236.012 154.227 235.831 154.244 235.612 154.244C235.281 154.244 234.956 154.173 234.638 154.03C234.323 153.888 234.061 153.671 233.852 153.379C233.647 153.087 233.544 152.719 233.544 152.275V144.679ZM241.203 154.304C240.514 154.304 239.909 154.14 239.389 153.811C238.872 153.483 238.467 153.024 238.176 152.434C237.887 151.844 237.743 151.155 237.743 150.366C237.743 149.571 237.887 148.876 238.176 148.283C238.467 147.69 238.872 147.229 239.389 146.901C239.909 146.573 240.514 146.409 241.203 146.409C241.893 146.409 242.496 146.573 243.013 146.901C243.533 147.229 243.938 147.69 244.226 148.283C244.518 148.876 244.663 149.571 244.663 150.366C244.663 151.155 244.518 151.844 244.226 152.434C243.938 153.024 243.533 153.483 243.013 153.811C242.496 154.14 241.893 154.304 241.203 154.304ZM241.203 153.25C241.727 153.25 242.158 153.115 242.496 152.847C242.834 152.578 243.084 152.225 243.247 151.788C243.409 151.35 243.49 150.877 243.49 150.366C243.49 149.856 243.409 149.38 243.247 148.939C243.084 148.498 242.834 148.142 242.496 147.87C242.158 147.599 241.727 147.463 241.203 147.463C240.68 147.463 240.249 147.599 239.911 147.87C239.573 148.142 239.322 148.498 239.16 148.939C238.998 149.38 238.916 149.856 238.916 150.366C238.916 150.877 238.998 151.35 239.16 151.788C239.322 152.225 239.573 152.578 239.911 152.847C240.249 153.115 240.68 153.25 241.203 153.25ZM251.288 157.008C251.089 157.008 250.911 156.992 250.756 156.958C250.6 156.929 250.492 156.899 250.433 156.869L250.731 155.835C251.016 155.908 251.268 155.934 251.487 155.914C251.705 155.895 251.899 155.797 252.068 155.621C252.241 155.449 252.398 155.169 252.541 154.781L252.759 154.184L249.935 146.508H251.208L253.316 152.593H253.396L255.504 146.508H256.776L253.535 155.258C253.389 155.653 253.208 155.979 252.993 156.238C252.777 156.499 252.527 156.693 252.242 156.819C251.96 156.945 251.642 157.008 251.288 157.008ZM261.224 154.304C260.534 154.304 259.93 154.14 259.409 153.811C258.892 153.483 258.488 153.024 258.196 152.434C257.908 151.844 257.764 151.155 257.764 150.366C257.764 149.571 257.908 148.876 258.196 148.283C258.488 147.69 258.892 147.229 259.409 146.901C259.93 146.573 260.534 146.409 261.224 146.409C261.913 146.409 262.516 146.573 263.033 146.901C263.554 147.229 263.958 147.69 264.247 148.283C264.538 148.876 264.684 149.571 264.684 150.366C264.684 151.155 264.538 151.844 264.247 152.434C263.958 153.024 263.554 153.483 263.033 153.811C262.516 154.14 261.913 154.304 261.224 154.304ZM261.224 153.25C261.747 153.25 262.178 153.115 262.516 152.847C262.854 152.578 263.105 152.225 263.267 151.788C263.43 151.35 263.511 150.877 263.511 150.366C263.511 149.856 263.43 149.38 263.267 148.939C263.105 148.498 262.854 148.142 262.516 147.87C262.178 147.599 261.747 147.463 261.224 147.463C260.7 147.463 260.269 147.599 259.931 147.87C259.593 148.142 259.343 148.498 259.18 148.939C259.018 149.38 258.937 149.856 258.937 150.366C258.937 150.877 259.018 151.35 259.18 151.788C259.343 152.225 259.593 152.578 259.931 152.847C260.269 153.115 260.7 153.25 261.224 153.25ZM271.358 151.022V146.508H272.531V154.145H271.358V152.852H271.278C271.099 153.24 270.821 153.569 270.443 153.841C270.065 154.11 269.588 154.244 269.011 154.244C268.534 154.244 268.109 154.14 267.738 153.931C267.367 153.719 267.075 153.4 266.863 152.976C266.651 152.549 266.545 152.01 266.545 151.36V146.508H267.718V151.281C267.718 151.838 267.874 152.282 268.186 152.613C268.501 152.945 268.902 153.11 269.389 153.11C269.68 153.11 269.977 153.036 270.279 152.887C270.584 152.738 270.839 152.509 271.044 152.201C271.253 151.892 271.358 151.5 271.358 151.022ZM274.75 154.145V146.508H275.883V147.662H275.963C276.102 147.284 276.354 146.977 276.719 146.742C277.083 146.507 277.494 146.389 277.952 146.389C278.038 146.389 278.145 146.391 278.275 146.394C278.404 146.397 278.502 146.402 278.568 146.409V147.602C278.528 147.592 278.437 147.577 278.295 147.557C278.155 147.534 278.008 147.522 277.852 147.522C277.481 147.522 277.149 147.6 276.858 147.756C276.569 147.908 276.341 148.121 276.172 148.392C276.006 148.661 275.923 148.967 275.923 149.312V154.145H274.75ZM285.428 143.963V154.145H284.195V143.963H285.428ZM288.985 149.551V154.145H287.811V146.508H288.945V147.701H289.044C289.223 147.314 289.495 147.002 289.86 146.767C290.224 146.528 290.695 146.409 291.272 146.409C291.789 146.409 292.241 146.515 292.629 146.727C293.017 146.936 293.318 147.254 293.534 147.681C293.749 148.106 293.857 148.643 293.857 149.292V154.145H292.684V149.372C292.684 148.772 292.528 148.305 292.216 147.97C291.905 147.632 291.477 147.463 290.934 147.463C290.559 147.463 290.224 147.544 289.929 147.706C289.638 147.869 289.407 148.106 289.238 148.417C289.069 148.729 288.985 149.107 288.985 149.551ZM299.392 146.508V147.502H295.434V146.508H299.392ZM296.588 144.679H297.761V151.957C297.761 152.288 297.809 152.537 297.905 152.703C298.005 152.865 298.131 152.975 298.283 153.031C298.439 153.084 298.603 153.11 298.775 153.11C298.905 153.11 299.011 153.104 299.094 153.091C299.176 153.074 299.243 153.061 299.292 153.051L299.531 154.105C299.451 154.135 299.34 154.164 299.198 154.194C299.055 154.227 298.875 154.244 298.656 154.244C298.325 154.244 298 154.173 297.682 154.03C297.367 153.888 297.105 153.671 296.896 153.379C296.691 153.087 296.588 152.719 296.588 152.275V144.679ZM304.346 154.304C303.611 154.304 302.976 154.141 302.442 153.816C301.912 153.488 301.503 153.031 301.214 152.444C300.929 151.854 300.787 151.168 300.787 150.386C300.787 149.604 300.929 148.914 301.214 148.318C301.503 147.718 301.904 147.251 302.417 146.916C302.934 146.578 303.538 146.409 304.227 146.409C304.625 146.409 305.018 146.475 305.405 146.608C305.793 146.74 306.146 146.956 306.464 147.254C306.783 147.549 307.036 147.94 307.225 148.427C307.414 148.914 307.508 149.514 307.508 150.227V150.724H301.622V149.71H306.315C306.315 149.279 306.229 148.895 306.057 148.556C305.888 148.218 305.646 147.952 305.331 147.756C305.019 147.56 304.651 147.463 304.227 147.463C303.76 147.463 303.355 147.579 303.014 147.811C302.676 148.039 302.416 148.338 302.234 148.706C302.051 149.074 301.96 149.468 301.96 149.889V150.565C301.96 151.142 302.059 151.631 302.258 152.032C302.461 152.429 302.741 152.733 303.099 152.941C303.457 153.147 303.872 153.25 304.346 153.25C304.655 153.25 304.933 153.207 305.182 153.12C305.434 153.031 305.651 152.898 305.833 152.723C306.015 152.544 306.156 152.322 306.256 152.056L307.389 152.375C307.27 152.759 307.069 153.097 306.787 153.389C306.506 153.677 306.158 153.903 305.743 154.065C305.329 154.224 304.863 154.304 304.346 154.304ZM309.363 154.145V146.508H310.497V147.662H310.576C310.715 147.284 310.967 146.977 311.332 146.742C311.697 146.507 312.107 146.389 312.565 146.389C312.651 146.389 312.759 146.391 312.888 146.394C313.017 146.397 313.115 146.402 313.181 146.409V147.602C313.142 147.592 313.05 147.577 312.908 147.557C312.769 147.534 312.621 147.522 312.465 147.522C312.094 147.522 311.763 147.6 311.471 147.756C311.183 147.908 310.954 148.121 310.785 148.392C310.619 148.661 310.536 148.967 310.536 149.312V154.145H309.363ZM317.611 154.304C316.876 154.304 316.241 154.141 315.707 153.816C315.177 153.488 314.768 153.031 314.479 152.444C314.194 151.854 314.052 151.168 314.052 150.386C314.052 149.604 314.194 148.914 314.479 148.318C314.768 147.718 315.169 147.251 315.682 146.916C316.199 146.578 316.803 146.409 317.492 146.409C317.89 146.409 318.283 146.475 318.67 146.608C319.058 146.74 319.411 146.956 319.729 147.254C320.047 147.549 320.301 147.94 320.49 148.427C320.679 148.914 320.773 149.514 320.773 150.227V150.724H314.887V149.71H319.58C319.58 149.279 319.494 148.895 319.322 148.556C319.153 148.218 318.911 147.952 318.596 147.756C318.284 147.56 317.916 147.463 317.492 147.463C317.025 147.463 316.62 147.579 316.279 147.811C315.941 148.039 315.681 148.338 315.498 148.706C315.316 149.074 315.225 149.468 315.225 149.889V150.565C315.225 151.142 315.324 151.631 315.523 152.032C315.726 152.429 316.006 152.733 316.364 152.941C316.721 153.147 317.137 153.25 317.611 153.25C317.92 153.25 318.198 153.207 318.447 153.12C318.699 153.031 318.916 152.898 319.098 152.723C319.28 152.544 319.421 152.322 319.521 152.056L320.654 152.375C320.535 152.759 320.334 153.097 320.052 153.389C319.771 153.677 319.423 153.903 319.008 154.065C318.594 154.224 318.128 154.304 317.611 154.304ZM328.037 148.218L326.983 148.517C326.917 148.341 326.819 148.17 326.69 148.005C326.564 147.836 326.392 147.696 326.173 147.587C325.954 147.478 325.674 147.423 325.333 147.423C324.865 147.423 324.476 147.531 324.164 147.746C323.856 147.958 323.702 148.228 323.702 148.556C323.702 148.848 323.808 149.078 324.02 149.248C324.232 149.417 324.564 149.557 325.015 149.67L326.148 149.949C326.831 150.114 327.34 150.368 327.674 150.709C328.009 151.047 328.176 151.483 328.176 152.017C328.176 152.454 328.051 152.845 327.799 153.19C327.55 153.535 327.202 153.806 326.755 154.005C326.307 154.204 325.787 154.304 325.193 154.304C324.415 154.304 323.77 154.135 323.26 153.797C322.749 153.458 322.426 152.965 322.29 152.315L323.404 152.037C323.51 152.448 323.71 152.756 324.005 152.961C324.304 153.167 324.693 153.27 325.174 153.27C325.72 153.27 326.155 153.154 326.476 152.922C326.801 152.686 326.963 152.404 326.963 152.076C326.963 151.811 326.871 151.589 326.685 151.41C326.499 151.228 326.214 151.092 325.83 151.002L324.557 150.704C323.858 150.538 323.344 150.282 323.016 149.934C322.691 149.582 322.529 149.143 322.529 148.616C322.529 148.185 322.65 147.804 322.892 147.473C323.137 147.141 323.47 146.881 323.891 146.692C324.315 146.503 324.796 146.409 325.333 146.409C326.088 146.409 326.682 146.574 327.113 146.906C327.547 147.237 327.855 147.675 328.037 148.218ZM333.334 146.508V147.502H329.376V146.508H333.334ZM330.53 144.679H331.703V151.957C331.703 152.288 331.751 152.537 331.847 152.703C331.947 152.865 332.073 152.975 332.225 153.031C332.381 153.084 332.545 153.11 332.717 153.11C332.846 153.11 332.952 153.104 333.035 153.091C333.118 153.074 333.184 153.061 333.234 153.051L333.473 154.105C333.393 154.135 333.282 154.164 333.14 154.194C332.997 154.227 332.817 154.244 332.598 154.244C332.266 154.244 331.942 154.173 331.623 154.03C331.309 153.888 331.047 153.671 330.838 153.379C330.632 153.087 330.53 152.719 330.53 152.275V144.679Z" fill="black"/>
</svg>
