<svg width="81" height="61" viewBox="0 0 81 61" fill="none" xmlns="http://www.w3.org/2000/svg">
<path d="M55.4361 59.4681H9.64251C5.06315 59.4681 1.31641 55.7213 1.31641 51.142V8.57477C1.31641 4.2556 4.80296 0.769043 9.12213 0.769043H55.4361C60.0155 0.769043 63.7622 4.51579 63.7622 9.09515V51.194C63.7622 55.7734 60.0155 59.4681 55.4361 59.4681Z" fill="white"/>
<path opacity="0.2" d="M55.4361 0.769043H9.12213C4.80296 0.769043 1.31641 4.2556 1.31641 8.57477V22.2608H63.7622V9.09515C63.7622 4.46375 60.0155 0.769043 55.4361 0.769043Z" fill="black" fill-opacity="0.8"/>
<path d="M1.31641 8.57477V19.1385H63.7622V9.66757C63.7622 4.72394 59.7553 0.769043 54.8637 0.769043H9.12213C4.80296 0.769043 1.31641 4.2556 1.31641 8.57477Z" fill="#FE3400"/>
<path d="M63.7617 19.7631H1.31586C0.951597 19.7631 0.691406 19.4508 0.691406 19.1386C0.691406 18.8264 1.00364 18.5142 1.31586 18.5142H63.7617C64.1259 18.5142 64.3861 18.8264 64.3861 19.1386C64.3861 19.4508 64.1259 19.7631 63.7617 19.7631Z" fill="black" fill-opacity="0.8"/>
<path d="M10.7349 13.5181C12.8904 13.5181 14.6378 11.7708 14.6378 9.61526C14.6378 7.45977 12.8904 5.7124 10.7349 5.7124C8.5794 5.7124 6.83203 7.45977 6.83203 9.61526C6.83203 11.7708 8.5794 13.5181 10.7349 13.5181Z" fill="white"/>
<path d="M54.3423 13.5181C56.4978 13.5181 58.2452 11.7708 58.2452 9.61526C58.2452 7.45977 56.4978 5.7124 54.3423 5.7124C52.1868 5.7124 50.4395 7.45977 50.4395 9.61526C50.4395 11.7708 52.1868 13.5181 54.3423 13.5181Z" fill="white"/>
<path d="M32.5396 13.5181C34.6951 13.5181 36.4424 11.7708 36.4424 9.61526C36.4424 7.45977 34.6951 5.7124 32.5396 5.7124C30.3841 5.7124 28.6367 7.45977 28.6367 9.61526C28.6367 11.7708 30.3841 13.5181 32.5396 13.5181Z" fill="white"/>
<path d="M10.7356 14.1951C8.23778 14.1951 6.15625 12.1656 6.15625 9.66774C6.15625 7.16991 8.18574 5.08838 10.7356 5.08838C13.2855 5.08838 15.315 7.11787 15.315 9.66774C15.315 12.2176 13.2855 14.1951 10.7356 14.1951ZM10.7356 6.38933C8.96631 6.38933 7.50924 7.8464 7.50924 9.6157C7.50924 11.385 8.96631 12.8421 10.7356 12.8421C12.5049 12.8421 13.962 11.385 13.962 9.6157C13.962 7.8464 12.5569 6.38933 10.7356 6.38933ZM54.3436 14.1951C51.8458 14.1951 49.7642 12.1656 49.7642 9.66774C49.7642 7.16991 51.7937 5.08838 54.3436 5.08838C56.8935 5.08838 58.9229 7.11787 58.9229 9.66774C58.9229 12.2176 56.8414 14.1951 54.3436 14.1951ZM54.3436 6.38933C52.5743 6.38933 51.1172 7.8464 51.1172 9.6157C51.1172 11.385 52.5743 12.8421 54.3436 12.8421C56.1129 12.8421 57.57 11.385 57.57 9.6157C57.57 7.8464 56.1129 6.38933 54.3436 6.38933ZM32.5396 14.1951C30.0418 14.1951 27.9602 12.1656 27.9602 9.66774C27.9602 7.16991 29.9897 5.08838 32.5396 5.08838C35.0895 5.08838 37.119 7.11787 37.119 9.66774C37.119 12.2176 35.0374 14.1951 32.5396 14.1951ZM32.5396 6.38933C30.7703 6.38933 29.3132 7.8464 29.3132 9.6157C29.3132 11.385 30.7703 12.8421 32.5396 12.8421C34.3089 12.8421 35.766 11.385 35.766 9.6157C35.766 7.8464 34.3089 6.38933 32.5396 6.38933Z" fill="black" fill-opacity="0.8"/>
<path d="M55.9559 60.1445H9.12159C4.43815 60.1445 0.691406 56.3457 0.691406 51.7144V8.57471C0.691406 3.89128 4.49019 0.144531 9.12159 0.144531H55.9559C60.6394 0.144531 64.3861 3.94332 64.3861 8.57471V51.7144C64.3861 56.3457 60.6394 60.1445 55.9559 60.1445ZM9.12159 1.39345C5.16669 1.39345 1.94032 4.61981 1.94032 8.57471V51.7144C1.94032 55.6693 5.16669 58.8956 9.12159 58.8956H55.9559C59.9108 58.8956 63.1372 55.6693 63.1372 51.7144V8.57471C63.1372 4.61981 59.9108 1.39345 55.9559 1.39345H9.12159Z" fill="black" fill-opacity="0.8"/>
<path d="M30.3528 44.4292H23.9001C24.4204 43.4404 25.3051 42.5558 26.8662 41.6191L28.0631 40.8906C29.5202 39.9539 31.3415 38.809 31.3415 36.1551C31.3415 33.5532 29.3641 31.8359 26.2418 31.8359C24.4725 31.8359 23.1195 32.3043 22.1308 33.293C21.5063 33.9175 20.9859 34.8021 20.7778 35.7908C20.7778 35.8949 20.7257 36.051 20.7257 36.2071C20.7257 36.8836 21.1941 37.404 21.9226 37.5601C22.0787 37.6122 22.2348 37.6122 22.3389 37.6122C23.0154 37.6122 23.5878 37.1959 23.7439 36.5714C24.0562 35.3745 24.5766 34.594 26.1897 34.594C26.7101 34.594 28.3233 34.698 28.3233 36.1031C28.3233 37.0918 27.907 37.6122 26.1377 38.757L24.8888 39.5376C23.1195 40.6824 21.9746 41.8273 21.2982 43.1803C21.142 43.4925 20.5176 44.6373 20.5176 45.522C20.5176 46.5627 21.1941 47.2392 22.2348 47.2392H30.3528C31.1334 47.2392 31.6537 46.6148 31.6537 45.7822C31.6537 45.0016 31.1334 44.4292 30.3528 44.4292ZM42.946 32.0961H34.724C33.9434 32.0961 33.371 32.7206 33.371 33.5532C33.371 34.3858 33.9434 35.0103 34.724 35.0103H40.7084C38.7309 38.1846 37.1698 41.9834 36.3372 45.6261C36.2851 45.7822 36.2851 45.8862 36.2851 45.9903C36.2851 46.7709 36.9096 47.3433 37.8463 47.3953H37.8983C38.7309 47.3953 39.3034 46.927 39.4595 46.0944C40.3962 41.7232 41.9053 38.0805 43.8307 35.4266L43.8827 35.3225C44.1949 34.8541 44.5592 34.4378 44.5592 33.6573C44.5592 32.6685 43.9348 32.0961 42.946 32.0961Z" fill="#FE3400"/>
<path d="M63.6577 57.3867C71.4175 57.3867 77.708 51.0962 77.708 43.3364C77.708 35.5767 71.4175 29.2861 63.6577 29.2861C55.898 29.2861 49.6074 35.5767 49.6074 43.3364C49.6074 51.0962 55.898 57.3867 63.6577 57.3867Z" fill="white"/>
<path d="M63.6588 44.8977C64.521 44.8977 65.2199 44.1987 65.2199 43.3365C65.2199 42.4743 64.521 41.7754 63.6588 41.7754C62.7966 41.7754 62.0977 42.4743 62.0977 43.3365C62.0977 44.1987 62.7966 44.8977 63.6588 44.8977Z" fill="#0269B8"/>
<path d="M63.6572 27.2046C60.4667 27.2046 57.3477 28.1507 54.6949 29.9233C52.042 31.6959 49.9743 34.2153 48.7534 37.163C47.5324 40.1107 47.2129 43.3543 47.8354 46.4836C48.4578 49.6128 49.9942 52.4873 52.2503 54.7433C54.5064 56.9994 57.3808 58.5358 60.5101 59.1583C63.6393 59.7807 66.8829 59.4613 69.8306 58.2403C72.7783 57.0193 75.2978 54.9516 77.0704 52.2988C78.8429 49.6459 79.7891 46.527 79.7891 43.3364C79.7891 39.058 78.0895 34.9548 75.0642 31.9295C72.0388 28.9042 67.9357 27.2046 63.6572 27.2046ZM63.6572 56.346C61.0842 56.346 58.5689 55.583 56.4295 54.1535C54.2901 52.7239 52.6226 50.6921 51.638 48.315C50.6533 45.9378 50.3957 43.322 50.8977 40.7984C51.3996 38.2748 52.6387 35.9567 54.4581 34.1373C56.2775 32.3179 58.5956 31.0788 61.1192 30.5769C63.6428 30.0749 66.2586 30.3325 68.6358 31.3172C71.0129 32.3018 73.0448 33.9693 74.4743 36.1087C75.9038 38.2481 76.6668 40.7634 76.6668 43.3364C76.6668 45.0449 76.3303 46.7366 75.6765 48.315C75.0227 49.8933 74.0644 51.3275 72.8564 52.5355C71.6483 53.7436 70.2142 54.7019 68.6358 55.3557C67.0574 56.0095 65.3657 56.346 63.6572 56.346Z" fill="#0269B8"/>
<path d="M69.3823 42.8159H65.1234C65.0457 42.5982 64.9207 42.4005 64.7573 42.2371C64.5939 42.0737 64.3961 41.9486 64.1785 41.871V35.5306C64.1785 35.3926 64.1236 35.2602 64.026 35.1626C63.9285 35.065 63.7961 35.0102 63.6581 35.0102C63.5201 35.0102 63.3877 35.065 63.2901 35.1626C63.1925 35.2602 63.1377 35.3926 63.1377 35.5306V41.871C62.8893 41.9583 62.6671 42.1072 62.4919 42.3037C62.3167 42.5003 62.1941 42.738 62.1357 42.9947C62.0773 43.2515 62.085 43.5188 62.158 43.7718C62.231 44.0248 62.3669 44.2551 62.5531 44.4413C62.7392 44.6275 62.9696 44.7634 63.2226 44.8364C63.4755 44.9094 63.7429 44.917 63.9996 44.8586C64.2564 44.8002 64.4941 44.6777 64.6906 44.5025C64.8872 44.3273 65.036 44.1051 65.1234 43.8567H69.3823C69.5203 43.8567 69.6527 43.8019 69.7502 43.7043C69.8478 43.6067 69.9027 43.4743 69.9027 43.3363C69.9027 43.1983 69.8478 43.0659 69.7502 42.9683C69.6527 42.8707 69.5203 42.8159 69.3823 42.8159ZM63.6581 43.8567C63.5552 43.8567 63.4545 43.8262 63.369 43.769C63.2834 43.7118 63.2167 43.6305 63.1773 43.5354C63.1379 43.4403 63.1276 43.3357 63.1477 43.2348C63.1678 43.1338 63.2173 43.0411 63.2901 42.9683C63.3629 42.8956 63.4556 42.846 63.5566 42.8259C63.6575 42.8058 63.7621 42.8161 63.8572 42.8555C63.9523 42.8949 64.0336 42.9616 64.0908 43.0472C64.1479 43.1328 64.1785 43.2334 64.1785 43.3363C64.1784 43.4743 64.1235 43.6066 64.0259 43.7042C63.9284 43.8017 63.7961 43.8566 63.6581 43.8567ZM73.2479 33.8034C73.2388 33.7927 73.2353 33.7793 73.2252 33.7692C73.2151 33.7591 73.2017 33.7556 73.191 33.7465C70.66 31.2233 67.2319 29.8064 63.6581 29.8064C60.0842 29.8064 56.6561 31.2233 54.1252 33.7465C54.1145 33.7556 54.1011 33.7591 54.091 33.7692C54.0809 33.7793 54.0774 33.7927 54.0683 33.8034C51.5451 36.3343 50.1282 39.7624 50.1282 43.3363C50.1282 46.9102 51.5451 50.3382 54.0683 52.8692C54.0774 52.8799 54.0809 52.8933 54.091 52.9034C54.1011 52.9135 54.1145 52.917 54.1252 52.9261C56.6561 55.4493 60.0842 56.8662 63.6581 56.8662C67.2319 56.8662 70.66 55.4493 73.191 52.9261C73.2017 52.917 73.2151 52.9135 73.2252 52.9034C73.2353 52.8933 73.2388 52.8799 73.2479 52.8692C75.7711 50.3382 77.188 46.9102 77.188 43.3363C77.188 39.7624 75.7711 36.3343 73.2479 33.8034ZM72.8355 51.7778L71.7535 50.6958C71.6556 50.5999 71.5237 50.5464 71.3866 50.5471C71.2496 50.5478 71.1183 50.6026 71.0213 50.6995C70.9244 50.7965 70.8696 50.9277 70.869 51.0648C70.8683 51.2019 70.9217 51.3337 71.0176 51.4317L72.0996 52.5136C69.9329 54.5143 67.1251 55.6789 64.1785 55.7991V54.2643C64.1785 54.1263 64.1236 53.9939 64.026 53.8963C63.9285 53.7988 63.7961 53.7439 63.6581 53.7439C63.5201 53.7439 63.3877 53.7988 63.2901 53.8963C63.1925 53.9939 63.1377 54.1263 63.1377 54.2643V55.7991C60.191 55.6789 57.3833 54.5143 55.2166 52.5137L56.2985 51.4317C56.3945 51.3338 56.4479 51.202 56.4472 51.0649C56.4465 50.9278 56.3918 50.7965 56.2948 50.6996C56.1979 50.6026 56.0666 50.5479 55.9295 50.5472C55.7925 50.5465 55.6606 50.5999 55.5627 50.6959L54.4807 51.7778C52.48 49.6111 51.3155 46.8033 51.1953 43.8567H52.7301C52.8681 43.8567 53.0004 43.8019 53.098 43.7043C53.1956 43.6067 53.2504 43.4743 53.2504 43.3363C53.2504 43.1983 53.1956 43.0659 53.098 42.9683C53.0004 42.8707 52.8681 42.8159 52.7301 42.8159H51.1953C51.3155 39.8693 52.48 37.0615 54.4807 34.8948L55.5627 35.9768C55.6606 36.0727 55.7924 36.1261 55.9295 36.1255C56.0666 36.1248 56.1979 36.07 56.2948 35.9731C56.3917 35.8761 56.4465 35.7448 56.4472 35.6078C56.4479 35.4707 56.3945 35.3388 56.2985 35.2409L55.2166 34.1589C57.3833 32.1583 60.191 30.9937 63.1377 30.8735V32.4083C63.1377 32.5463 63.1925 32.6787 63.2901 32.7762C63.3877 32.8738 63.5201 32.9287 63.6581 32.9287C63.7961 32.9287 63.9285 32.8738 64.026 32.7762C64.1236 32.6787 64.1785 32.5463 64.1785 32.4083V30.8735C67.1251 30.9937 69.9329 32.1583 72.0996 34.1589L71.0176 35.2409C70.9685 35.289 70.9294 35.3464 70.9026 35.4098C70.8758 35.4731 70.8618 35.5411 70.8615 35.6099C70.8611 35.6787 70.8744 35.7468 70.9006 35.8104C70.9267 35.874 70.9653 35.9318 71.0139 35.9805C71.0625 36.0291 71.1203 36.0676 71.1839 36.0938C71.2475 36.1199 71.3157 36.1332 71.3844 36.1329C71.4532 36.1325 71.5212 36.1185 71.5846 36.0917C71.6479 36.0649 71.7053 36.0258 71.7534 35.9767L72.8355 34.8948C74.8361 37.0615 76.0007 39.8693 76.1209 42.8159H74.5861C74.4481 42.8159 74.3157 42.8707 74.2181 42.9683C74.1205 43.0659 74.0657 43.1983 74.0657 43.3363C74.0657 43.4743 74.1205 43.6067 74.2181 43.7043C74.3157 43.8019 74.4481 43.8567 74.5861 43.8567H76.1209C76.0007 46.8033 74.8361 49.6111 72.8355 51.7778ZM63.6581 26.6841C60.3646 26.6841 57.145 27.6607 54.4066 29.4905C51.6682 31.3203 49.5338 33.921 48.2734 36.9638C47.0131 40.0066 46.6833 43.3548 47.3258 46.585C47.9684 49.8152 49.5543 52.7823 51.8832 55.1112C54.212 57.44 57.1792 59.026 60.4094 59.6685C63.6396 60.3111 66.9878 59.9813 70.0306 58.7209C73.0734 57.4606 75.6741 55.3262 77.5039 52.5878C79.3337 49.8493 80.3103 46.6298 80.3103 43.3363C80.3052 38.9214 78.5492 34.6888 75.4274 31.567C72.3056 28.4452 68.073 26.6891 63.6581 26.6841ZM63.6581 58.9477C60.5704 58.9477 57.5521 58.0321 54.9848 56.3167C52.4175 54.6013 50.4166 52.1632 49.235 49.3105C48.0534 46.4579 47.7442 43.319 48.3466 40.2907C48.949 37.2623 50.4358 34.4806 52.6191 32.2973C54.8024 30.114 57.5841 28.6272 60.6124 28.0248C63.6408 27.4224 66.7797 27.7316 69.6323 28.9132C72.4849 30.0948 74.9231 32.0957 76.6385 34.663C78.3539 37.2303 79.2695 40.2486 79.2695 43.3363C79.2648 47.4753 77.6186 51.4434 74.6919 54.3701C71.7652 57.2968 67.7971 58.9431 63.6581 58.9477Z" fill="black" fill-opacity="0.8"/>
</svg>
