<svg width="41" height="40" viewBox="0 0 41 40" fill="none" xmlns="http://www.w3.org/2000/svg">
<g clip-path="url(#clip0_1_3740)">
<path d="M17.3749 2.5C17.8722 2.5 18.3491 2.69754 18.7007 3.04917C19.0524 3.40081 19.2499 3.87772 19.2499 4.375V20C19.2499 20.3315 19.3816 20.6495 19.616 20.8839C19.8505 21.1183 20.1684 21.25 20.4999 21.25C20.8314 21.25 21.1494 21.1183 21.3838 20.8839C21.6182 20.6495 21.7499 20.3315 21.7499 20V13.6675L21.9649 13.6575C22.7574 13.6275 23.5574 13.6375 24.0049 13.725C24.3399 13.7925 24.7399 13.965 25.1249 14.18C25.3174 14.285 25.4999 14.5475 25.4999 14.965V20C25.4999 20.3315 25.6316 20.6495 25.866 20.8839C26.1005 21.1183 26.4184 21.25 26.7499 21.25C27.0814 21.25 27.3994 21.1183 27.6338 20.8839C27.8682 20.6495 27.9999 20.3315 27.9999 20V16.0875L28.2649 16.0625C29.0549 16.0025 29.7249 16.0375 30.0349 16.1625C30.3299 16.2775 30.7849 16.68 31.2499 17.2375C31.4524 17.4775 31.6249 17.7125 31.7499 17.885V21.25C31.7499 21.5815 31.8816 21.8995 32.116 22.1339C32.3505 22.3683 32.6684 22.5 32.9999 22.5C33.3314 22.5 33.6494 22.3683 33.8838 22.1339C34.1182 21.8995 34.2499 21.5815 34.2499 21.25V18.75H35.1049C35.4543 18.75 35.7998 18.8232 36.1192 18.965C36.4385 19.1067 36.7246 19.3138 36.959 19.5729C37.1934 19.8321 37.3708 20.1374 37.4799 20.4693C37.589 20.8013 37.6274 21.1524 37.5924 21.5L36.9149 28.2875C36.8274 29.1598 36.5574 30.0039 36.1224 30.765L32.6349 36.87C32.5256 37.0613 32.3677 37.2203 32.1772 37.331C31.9866 37.4416 31.7703 37.4999 31.5499 37.5H15.7949C15.563 37.5 15.3356 37.4355 15.1382 37.3136C14.9409 37.1917 14.7813 37.0174 14.6774 36.81L11.5974 30.6475L5.31742 20.185C5.15607 19.9145 5.09906 19.5944 5.15709 19.2848C5.21511 18.9752 5.38419 18.6975 5.63255 18.5038C5.88091 18.31 6.19146 18.2137 6.50585 18.2328C6.82024 18.2519 7.11684 18.3851 7.33992 18.6075L13.3649 24.6325C13.5396 24.8076 13.7623 24.927 14.0048 24.9755C14.2474 25.024 14.4988 24.9994 14.7274 24.9049C14.956 24.8105 15.1514 24.6503 15.2889 24.4447C15.4264 24.2391 15.4999 23.9973 15.4999 23.75V4.375C15.4999 3.87772 15.6975 3.40081 16.0491 3.04917C16.4007 2.69754 16.8776 2.5 17.3749 2.5ZM21.7499 11.165V4.375C21.7499 3.21468 21.289 2.10188 20.4685 1.28141C19.648 0.460936 18.5352 0 17.3749 0C16.2146 0 15.1018 0.460936 14.2813 1.28141C13.4609 2.10188 12.9999 3.21468 12.9999 4.375V20.7325L9.10742 16.84C8.4525 16.1887 7.58241 15.7988 6.66042 15.7434C5.73843 15.6881 4.82794 15.9711 4.0998 16.5394C3.37166 17.1076 2.87593 17.9221 2.70564 18.8299C2.53536 19.7377 2.70222 20.6765 3.17492 21.47L9.40242 31.8525L12.4399 37.9275C12.7515 38.5504 13.2304 39.0743 13.823 39.4404C14.4156 39.8064 15.0984 40.0002 15.7949 40H31.5499C32.2109 39.9998 32.8601 39.8249 33.4317 39.493C34.0033 39.161 34.4771 38.684 34.8049 38.11L38.2924 32.0075C38.9021 30.9408 39.2803 29.7576 39.4024 28.535L40.0799 21.7475C40.1494 21.0524 40.0725 20.3505 39.8541 19.6869C39.6358 19.0234 39.2808 18.413 38.8121 17.895C38.3433 17.3771 37.7713 16.9631 37.1328 16.6798C36.4943 16.3964 35.8035 16.25 35.1049 16.25H33.6524C33.4963 16.0384 33.3338 15.8316 33.1649 15.63C32.6874 15.0575 31.8899 14.21 30.9649 13.84C30.0549 13.475 28.8499 13.51 28.0699 13.57L27.7399 13.6C27.4738 12.9187 26.9788 12.3512 26.3399 11.995C25.7648 11.6633 25.1427 11.4205 24.4949 11.275C23.7199 11.12 22.6474 11.13 21.8699 11.16L21.7499 11.165Z" fill="url(#paint0_linear_1_3740)"/>
</g>
<defs>
<linearGradient id="paint0_linear_1_3740" x1="21.3727" y1="0" x2="21.3727" y2="40" gradientUnits="userSpaceOnUse">
<stop stop-color="#FE9000"/>
<stop offset="1" stop-color="#FF3500"/>
</linearGradient>
<clipPath id="clip0_1_3740">
<rect width="40" height="40" fill="white" transform="translate(0.5)"/>
</clipPath>
</defs>
</svg>
