<svg width="41" height="40" viewBox="0 0 41 40" fill="none" xmlns="http://www.w3.org/2000/svg">
<path fill-rule="evenodd" clip-rule="evenodd" d="M12.9996 28.7503C12.9996 28.4188 13.1313 28.1008 13.3657 27.8664C13.6002 27.632 13.9181 27.5003 14.2496 27.5003H36.7496C37.0811 27.5003 37.3991 27.632 37.6335 27.8664C37.8679 28.1008 37.9996 28.4188 37.9996 28.7503C37.9996 29.0818 37.8679 29.3997 37.6335 29.6342C37.3991 29.8686 37.0811 30.0003 36.7496 30.0003H14.2496C13.9181 30.0003 13.6002 29.8686 13.3657 29.6342C13.1313 29.3997 12.9996 29.0818 12.9996 28.7503ZM12.9996 18.7503C12.9996 18.4188 13.1313 18.1008 13.3657 17.8664C13.6002 17.632 13.9181 17.5003 14.2496 17.5003H36.7496C37.0811 17.5003 37.3991 17.632 37.6335 17.8664C37.8679 18.1008 37.9996 18.4188 37.9996 18.7503C37.9996 19.0818 37.8679 19.3997 37.6335 19.6342C37.3991 19.8686 37.0811 20.0003 36.7496 20.0003H14.2496C13.9181 20.0003 13.6002 19.8686 13.3657 19.6342C13.1313 19.3997 12.9996 19.0818 12.9996 18.7503ZM12.9996 8.75028C12.9996 8.41876 13.1313 8.10082 13.3657 7.8664C13.6002 7.63198 13.9181 7.50028 14.2496 7.50028H36.7496C37.0811 7.50028 37.3991 7.63198 37.6335 7.8664C37.8679 8.10082 37.9996 8.41876 37.9996 8.75028C37.9996 9.0818 37.8679 9.39974 37.6335 9.63416C37.3991 9.86859 37.0811 10.0003 36.7496 10.0003H14.2496C13.9181 10.0003 13.6002 9.86859 13.3657 9.63416C13.1313 9.39974 12.9996 9.0818 12.9996 8.75028ZM10.1346 5.36528C10.251 5.4814 10.3434 5.61933 10.4064 5.7712C10.4694 5.92306 10.5019 6.08586 10.5019 6.25028C10.5019 6.4147 10.4694 6.5775 10.4064 6.72937C10.3434 6.88123 10.251 7.01917 10.1346 7.13528L6.38463 10.8853C6.26851 11.0017 6.13057 11.094 5.97871 11.1571C5.82685 11.2201 5.66404 11.2525 5.49963 11.2525C5.33521 11.2525 5.1724 11.2201 5.02054 11.1571C4.86868 11.094 4.73074 11.0017 4.61463 10.8853L3.36463 9.63528C3.24841 9.51906 3.15622 9.38109 3.09332 9.22924C3.03042 9.07739 2.99805 8.91464 2.99805 8.75028C2.99805 8.58592 3.03042 8.42317 3.09332 8.27132C3.15622 8.11947 3.24841 7.9815 3.36463 7.86528C3.48085 7.74906 3.61882 7.65687 3.77067 7.59397C3.92252 7.53108 4.08527 7.4987 4.24963 7.4987C4.41399 7.4987 4.57674 7.53108 4.72858 7.59397C4.88043 7.65687 5.01841 7.74906 5.13463 7.86528L5.49963 8.23278L8.36462 5.36528C8.48074 5.24887 8.61868 5.15652 8.77054 5.0935C8.9224 5.03048 9.08521 4.99805 9.24963 4.99805C9.41404 4.99805 9.57685 5.03048 9.72871 5.0935C9.88057 5.15652 10.0185 5.24887 10.1346 5.36528ZM10.1346 15.3653C10.251 15.4814 10.3434 15.6193 10.4064 15.7712C10.4694 15.9231 10.5019 16.0859 10.5019 16.2503C10.5019 16.4147 10.4694 16.5775 10.4064 16.7294C10.3434 16.8812 10.251 17.0192 10.1346 17.1353L6.38463 20.8853C6.26851 21.0017 6.13057 21.094 5.97871 21.1571C5.82685 21.2201 5.66404 21.2525 5.49963 21.2525C5.33521 21.2525 5.1724 21.2201 5.02054 21.1571C4.86868 21.094 4.73074 21.0017 4.61463 20.8853L3.36463 19.6353C3.12991 19.4006 2.99805 19.0822 2.99805 18.7503C2.99805 18.4183 3.12991 18.1 3.36463 17.8653C3.59934 17.6306 3.91769 17.4987 4.24963 17.4987C4.58157 17.4987 4.89991 17.6306 5.13463 17.8653L5.49963 18.2328L8.36462 15.3653C8.48074 15.2489 8.61868 15.1565 8.77054 15.0935C8.9224 15.0305 9.08521 14.998 9.24963 14.998C9.41404 14.998 9.57685 15.0305 9.72871 15.0935C9.88057 15.1565 10.0185 15.2489 10.1346 15.3653ZM10.1346 25.3653C10.251 25.4814 10.3434 25.6193 10.4064 25.7712C10.4694 25.9231 10.5019 26.0859 10.5019 26.2503C10.5019 26.4147 10.4694 26.5775 10.4064 26.7294C10.3434 26.8812 10.251 27.0192 10.1346 27.1353L6.38463 30.8853C6.26851 31.0017 6.13057 31.094 5.97871 31.1571C5.82685 31.2201 5.66404 31.2525 5.49963 31.2525C5.33521 31.2525 5.1724 31.2201 5.02054 31.1571C4.86868 31.094 4.73074 31.0017 4.61463 30.8853L3.36463 29.6353C3.12991 29.4006 2.99805 29.0822 2.99805 28.7503C2.99805 28.4183 3.12991 28.1 3.36463 27.8653C3.59934 27.6306 3.91769 27.4987 4.24963 27.4987C4.58157 27.4987 4.89991 27.6306 5.13463 27.8653L5.49963 28.2328L8.36462 25.3653C8.48074 25.2489 8.61868 25.1565 8.77054 25.0935C8.9224 25.0305 9.08521 24.998 9.24963 24.998C9.41404 24.998 9.57685 25.0305 9.72871 25.0935C9.88057 25.1565 10.0185 25.2489 10.1346 25.3653Z" fill="url(#paint0_linear_1_3745)"/>
<defs>
<linearGradient id="paint0_linear_1_3745" x1="20.4988" y1="4.99805" x2="20.4988" y2="31.2525" gradientUnits="userSpaceOnUse">
<stop stop-color="#FE9000"/>
<stop offset="1" stop-color="#FF3500"/>
</linearGradient>
</defs>
</svg>
