<svg width="31" height="30" viewBox="0 0 31 30" fill="none" xmlns="http://www.w3.org/2000/svg">
<path d="M0.410156 1.875C0.410156 0.837891 1.24805 0 2.28516 0H28.5352C29.5723 0 30.4102 0.837891 30.4102 1.875C30.4102 2.91211 29.5723 3.75 28.5352 3.75V26.25C29.5723 26.25 30.4102 27.0879 30.4102 28.125C30.4102 29.1621 29.5723 30 28.5352 30H18.2227V27.1875C18.2227 25.6348 16.9629 24.375 15.4102 24.375C13.8574 24.375 12.5977 25.6348 12.5977 27.1875V30H2.28516C1.24805 30 0.410156 29.1621 0.410156 28.125C0.410156 27.0879 1.24805 26.25 2.28516 26.25V3.75C1.24805 3.75 0.410156 2.91211 0.410156 1.875ZM6.03516 6.5625V8.4375C6.03516 8.95312 6.45703 9.375 6.97266 9.375H8.84766C9.36328 9.375 9.78516 8.95312 9.78516 8.4375V6.5625C9.78516 6.04688 9.36328 5.625 8.84766 5.625H6.97266C6.45703 5.625 6.03516 6.04688 6.03516 6.5625ZM14.4727 5.625C13.957 5.625 13.5352 6.04688 13.5352 6.5625V8.4375C13.5352 8.95312 13.957 9.375 14.4727 9.375H16.3477C16.8633 9.375 17.2852 8.95312 17.2852 8.4375V6.5625C17.2852 6.04688 16.8633 5.625 16.3477 5.625H14.4727ZM21.0352 6.5625V8.4375C21.0352 8.95312 21.457 9.375 21.9727 9.375H23.8477C24.3633 9.375 24.7852 8.95312 24.7852 8.4375V6.5625C24.7852 6.04688 24.3633 5.625 23.8477 5.625H21.9727C21.457 5.625 21.0352 6.04688 21.0352 6.5625ZM6.97266 11.25C6.45703 11.25 6.03516 11.6719 6.03516 12.1875V14.0625C6.03516 14.5781 6.45703 15 6.97266 15H8.84766C9.36328 15 9.78516 14.5781 9.78516 14.0625V12.1875C9.78516 11.6719 9.36328 11.25 8.84766 11.25H6.97266ZM13.5352 12.1875V14.0625C13.5352 14.5781 13.957 15 14.4727 15H16.3477C16.8633 15 17.2852 14.5781 17.2852 14.0625V12.1875C17.2852 11.6719 16.8633 11.25 16.3477 11.25H14.4727C13.957 11.25 13.5352 11.6719 13.5352 12.1875ZM21.9727 11.25C21.457 11.25 21.0352 11.6719 21.0352 12.1875V14.0625C21.0352 14.5781 21.457 15 21.9727 15H23.8477C24.3633 15 24.7852 14.5781 24.7852 14.0625V12.1875C24.7852 11.6719 24.3633 11.25 23.8477 11.25H21.9727ZM19.6289 22.5C20.4082 22.5 21.0527 21.8613 20.8594 21.1055C20.2383 18.6738 18.0352 16.875 15.4102 16.875C12.7852 16.875 10.5762 18.6738 9.96094 21.1055C9.76758 21.8555 10.418 22.5 11.1914 22.5H19.6289Z" fill="#CCCCCC"/>
</svg>
