<svg width="83" height="34" viewBox="0 0 83 34" fill="none" xmlns="http://www.w3.org/2000/svg">
<rect x="0.5" width="82" height="34" rx="8" fill="#FFF3E3"/>
<path d="M10.875 9.5C10.7092 9.5 10.5503 9.56585 10.4331 9.68306C10.3158 9.80027 10.25 9.95924 10.25 10.125C10.25 10.2908 10.3158 10.4497 10.4331 10.5669C10.5503 10.6842 10.7092 10.75 10.875 10.75H22.125C22.2908 10.75 22.4497 10.6842 22.5669 10.5669C22.6842 10.4497 22.75 10.2908 22.75 10.125C22.75 9.95924 22.6842 9.80027 22.5669 9.68306C22.4497 9.56585 22.2908 9.5 22.125 9.5H10.875ZM16.9425 12.1825C16.8844 12.1243 16.8155 12.0781 16.7395 12.0466C16.6636 12.0151 16.5822 11.9989 16.5 11.9989C16.4178 11.9989 16.3364 12.0151 16.2605 12.0466C16.1845 12.0781 16.1156 12.1243 16.0575 12.1825L11.6825 16.5575C11.6244 16.6156 11.5783 16.6846 11.5468 16.7605C11.5154 16.8364 11.4992 16.9178 11.4992 17C11.4992 17.0822 11.5154 17.1636 11.5468 17.2395C11.5783 17.3154 11.6244 17.3844 11.6825 17.4425C11.7406 17.5006 11.8096 17.5467 11.8855 17.5782C11.9614 17.6096 12.0428 17.6258 12.125 17.6258C12.2072 17.6258 12.2886 17.6096 12.3645 17.5782C12.4404 17.5467 12.5094 17.5006 12.5675 17.4425L15.875 14.1337V23.875C15.875 24.0408 15.9408 24.1997 16.0581 24.3169C16.1753 24.4342 16.3342 24.5 16.5 24.5C16.6658 24.5 16.8247 24.4342 16.9419 24.3169C17.0592 24.1997 17.125 24.0408 17.125 23.875V14.1337L20.4325 17.4425C20.5499 17.5599 20.709 17.6258 20.875 17.6258C21.041 17.6258 21.2001 17.5599 21.3175 17.4425C21.4349 17.3251 21.5008 17.166 21.5008 17C21.5008 16.834 21.4349 16.6749 21.3175 16.5575L16.9425 12.1825Z" fill="#FF3500"/>
<path d="M31.492 12.636V17.928C31.492 18.672 31.672 19.224 32.032 19.584C32.4 19.944 32.908 20.124 33.556 20.124C34.196 20.124 34.696 19.944 35.056 19.584C35.424 19.224 35.608 18.672 35.608 17.928V12.636H36.7V17.916C36.7 18.612 36.56 19.2 36.28 19.68C36 20.152 35.62 20.504 35.14 20.736C34.668 20.968 34.136 21.084 33.544 21.084C32.952 21.084 32.416 20.968 31.936 20.736C31.464 20.504 31.088 20.152 30.808 19.68C30.536 19.2 30.4 18.612 30.4 17.916V12.636H31.492ZM39.8537 15.636C40.0697 15.26 40.3897 14.948 40.8137 14.7C41.2457 14.444 41.7457 14.316 42.3137 14.316C42.8977 14.316 43.4257 14.456 43.8977 14.736C44.3777 15.016 44.7537 15.412 45.0257 15.924C45.2977 16.428 45.4337 17.016 45.4337 17.688C45.4337 18.352 45.2977 18.944 45.0257 19.464C44.7537 19.984 44.3777 20.388 43.8977 20.676C43.4257 20.964 42.8977 21.108 42.3137 21.108C41.7537 21.108 41.2577 20.984 40.8257 20.736C40.4017 20.48 40.0777 20.164 39.8537 19.788V24.12H38.7617V14.424H39.8537V15.636ZM44.3177 17.688C44.3177 17.192 44.2177 16.76 44.0177 16.392C43.8177 16.024 43.5457 15.744 43.2017 15.552C42.8657 15.36 42.4937 15.264 42.0857 15.264C41.6857 15.264 41.3137 15.364 40.9697 15.564C40.6337 15.756 40.3617 16.04 40.1537 16.416C39.9537 16.784 39.8537 17.212 39.8537 17.7C39.8537 18.196 39.9537 18.632 40.1537 19.008C40.3617 19.376 40.6337 19.66 40.9697 19.86C41.3137 20.052 41.6857 20.148 42.0857 20.148C42.4937 20.148 42.8657 20.052 43.2017 19.86C43.5457 19.66 43.8177 19.376 44.0177 19.008C44.2177 18.632 44.3177 18.192 44.3177 17.688ZM48.203 12.12V21H47.111V12.12H48.203ZM53.1722 21.108C52.5562 21.108 51.9962 20.968 51.4922 20.688C50.9962 20.408 50.6042 20.012 50.3162 19.5C50.0362 18.98 49.8962 18.38 49.8962 17.7C49.8962 17.028 50.0402 16.436 50.3282 15.924C50.6242 15.404 51.0242 15.008 51.5282 14.736C52.0322 14.456 52.5962 14.316 53.2202 14.316C53.8442 14.316 54.4082 14.456 54.9122 14.736C55.4162 15.008 55.8122 15.4 56.1002 15.912C56.3962 16.424 56.5442 17.02 56.5442 17.7C56.5442 18.38 56.3922 18.98 56.0882 19.5C55.7922 20.012 55.3882 20.408 54.8762 20.688C54.3642 20.968 53.7962 21.108 53.1722 21.108ZM53.1722 20.148C53.5642 20.148 53.9322 20.056 54.2762 19.872C54.6202 19.688 54.8962 19.412 55.1042 19.044C55.3202 18.676 55.4282 18.228 55.4282 17.7C55.4282 17.172 55.3242 16.724 55.1162 16.356C54.9082 15.988 54.6362 15.716 54.3002 15.54C53.9642 15.356 53.6002 15.264 53.2082 15.264C52.8082 15.264 52.4402 15.356 52.1042 15.54C51.7762 15.716 51.5122 15.988 51.3122 16.356C51.1122 16.724 51.0122 17.172 51.0122 17.7C51.0122 18.236 51.1082 18.688 51.3002 19.056C51.5002 19.424 51.7642 19.7 52.0922 19.884C52.4202 20.06 52.7802 20.148 53.1722 20.148ZM57.8119 17.688C57.8119 17.016 57.9479 16.428 58.2199 15.924C58.4919 15.412 58.8639 15.016 59.3359 14.736C59.8159 14.456 60.3479 14.316 60.9319 14.316C61.5079 14.316 62.0079 14.44 62.4319 14.688C62.8559 14.936 63.1719 15.248 63.3799 15.624V14.424H64.4839V21H63.3799V19.776C63.1639 20.16 62.8399 20.48 62.4079 20.736C61.9839 20.984 61.4879 21.108 60.9199 21.108C60.3359 21.108 59.8079 20.964 59.3359 20.676C58.8639 20.388 58.4919 19.984 58.2199 19.464C57.9479 18.944 57.8119 18.352 57.8119 17.688ZM63.3799 17.7C63.3799 17.204 63.2799 16.772 63.0799 16.404C62.8799 16.036 62.6079 15.756 62.2639 15.564C61.9279 15.364 61.5559 15.264 61.1479 15.264C60.7399 15.264 60.3679 15.36 60.0319 15.552C59.6959 15.744 59.4279 16.024 59.2279 16.392C59.0279 16.76 58.9279 17.192 58.9279 17.688C58.9279 18.192 59.0279 18.632 59.2279 19.008C59.4279 19.376 59.6959 19.66 60.0319 19.86C60.3679 20.052 60.7399 20.148 61.1479 20.148C61.5559 20.148 61.9279 20.052 62.2639 19.86C62.6079 19.66 62.8799 19.376 63.0799 19.008C63.2799 18.632 63.3799 18.196 63.3799 17.7ZM66.1613 17.688C66.1613 17.016 66.2973 16.428 66.5693 15.924C66.8413 15.412 67.2133 15.016 67.6853 14.736C68.1653 14.456 68.7013 14.316 69.2933 14.316C69.8053 14.316 70.2813 14.436 70.7213 14.676C71.1613 14.908 71.4973 15.216 71.7293 15.6V12.12H72.8333V21H71.7293V19.764C71.5133 20.156 71.1933 20.48 70.7693 20.736C70.3453 20.984 69.8493 21.108 69.2813 21.108C68.6973 21.108 68.1653 20.964 67.6853 20.676C67.2133 20.388 66.8413 19.984 66.5693 19.464C66.2973 18.944 66.1613 18.352 66.1613 17.688ZM71.7293 17.7C71.7293 17.204 71.6293 16.772 71.4293 16.404C71.2293 16.036 70.9573 15.756 70.6133 15.564C70.2773 15.364 69.9053 15.264 69.4973 15.264C69.0893 15.264 68.7173 15.36 68.3813 15.552C68.0453 15.744 67.7773 16.024 67.5773 16.392C67.3773 16.76 67.2773 17.192 67.2773 17.688C67.2773 18.192 67.3773 18.632 67.5773 19.008C67.7773 19.376 68.0453 19.66 68.3813 19.86C68.7173 20.052 69.0893 20.148 69.4973 20.148C69.9053 20.148 70.2773 20.052 70.6133 19.86C70.9573 19.66 71.2293 19.376 71.4293 19.008C71.6293 18.632 71.7293 18.196 71.7293 17.7Z" fill="#FF3500"/>
</svg>
