<svg width="41" height="40" viewBox="0 0 41 40" fill="none" xmlns="http://www.w3.org/2000/svg">
<g clip-path="url(#clip0_1_3750)">
<path d="M20.5 37.5C15.8587 37.5 11.4075 35.6563 8.12563 32.3744C4.84374 29.0925 3 24.6413 3 20C3 15.3587 4.84374 10.9075 8.12563 7.62563C11.4075 4.34374 15.8587 2.5 20.5 2.5C25.1413 2.5 29.5925 4.34374 32.8744 7.62563C36.1563 10.9075 38 15.3587 38 20C38 24.6413 36.1563 29.0925 32.8744 32.3744C29.5925 35.6563 25.1413 37.5 20.5 37.5ZM20.5 40C25.8043 40 30.8914 37.8929 34.6421 34.1421C38.3929 30.3914 40.5 25.3043 40.5 20C40.5 14.6957 38.3929 9.60859 34.6421 5.85786C30.8914 2.10714 25.8043 0 20.5 0C15.1957 0 10.1086 2.10714 6.35786 5.85786C2.60714 9.60859 0.5 14.6957 0.5 20C0.5 25.3043 2.60714 30.3914 6.35786 34.1421C10.1086 37.8929 15.1957 40 20.5 40Z" fill="url(#paint0_linear_1_3750)"/>
<path d="M22.8249 16.47L17.0999 17.1875L16.8949 18.1375L18.0199 18.345C18.7549 18.52 18.8999 18.785 18.7399 19.5175L16.8949 28.1875C16.4099 30.43 17.1574 31.485 18.9149 31.485C20.2774 31.485 21.8599 30.855 22.5774 29.99L22.7974 28.95C22.2974 29.39 21.5674 29.565 21.0824 29.565C20.3949 29.565 20.1449 29.0825 20.3224 28.2325L22.8249 16.47ZM22.9999 11.25C22.9999 11.913 22.7365 12.5489 22.2676 13.0178C21.7988 13.4866 21.1629 13.75 20.4999 13.75C19.8368 13.75 19.201 13.4866 18.7321 13.0178C18.2633 12.5489 17.9999 11.913 17.9999 11.25C17.9999 10.587 18.2633 9.95107 18.7321 9.48223C19.201 9.01339 19.8368 8.75 20.4999 8.75C21.1629 8.75 21.7988 9.01339 22.2676 9.48223C22.7365 9.95107 22.9999 10.587 22.9999 11.25Z" fill="url(#paint1_linear_1_3750)"/>
</g>
<defs>
<linearGradient id="paint0_linear_1_3750" x1="20.5" y1="0" x2="20.5" y2="40" gradientUnits="userSpaceOnUse">
<stop stop-color="#FE9000"/>
<stop offset="1" stop-color="#FF3500"/>
</linearGradient>
<linearGradient id="paint1_linear_1_3750" x1="19.8749" y1="8.75" x2="19.8749" y2="31.485" gradientUnits="userSpaceOnUse">
<stop stop-color="#FE9000"/>
<stop offset="1" stop-color="#FF3500"/>
</linearGradient>
<clipPath id="clip0_1_3750">
<rect width="40" height="40" fill="white" transform="translate(0.5)"/>
</clipPath>
</defs>
</svg>
