<svg width="119" height="43" viewBox="0 0 119 43" fill="none" xmlns="http://www.w3.org/2000/svg">
<path d="M19.3089 5.27273V22H15.266V5.27273H19.3089ZM21.2998 8.55611V5.27273H35.4379V8.55611H30.3659V22H26.3801V8.55611H21.2998ZM45.9721 22H41.627L47.2708 5.27273H52.6532L58.2971 22H53.9519L50.0233 9.48722H49.8926L45.9721 22ZM45.3922 15.4169H54.4746V18.4879H45.3922V15.4169ZM68.623 10.2876C68.5685 9.68868 68.3262 9.22313 67.896 8.89098C67.4713 8.55339 66.8642 8.38459 66.0747 8.38459C65.5519 8.38459 65.1163 8.45265 64.7678 8.58878C64.4194 8.72491 64.158 8.91276 63.9838 9.15234C63.8095 9.38648 63.7197 9.65601 63.7142 9.96094C63.7033 10.2114 63.7523 10.4319 63.8612 10.6225C63.9756 10.8131 64.1389 10.9819 64.3513 11.1289C64.5691 11.2705 64.8305 11.3957 65.1354 11.5046C65.4403 11.6135 65.7834 11.7088 66.1645 11.7905L67.602 12.1172C68.4297 12.2969 69.1593 12.5365 69.7909 12.8359C70.428 13.1354 70.9616 13.4921 71.3918 13.9059C71.8274 14.3197 72.1568 14.7962 72.3801 15.3352C72.6033 15.8743 72.7177 16.4787 72.7231 17.1484C72.7177 18.2048 72.4508 19.1114 71.9227 19.8683C71.3945 20.6251 70.6349 21.205 69.6439 21.608C68.6584 22.0109 67.4686 22.2124 66.0747 22.2124C64.6753 22.2124 63.4556 22.0027 62.4156 21.5835C61.3756 21.1642 60.567 20.5271 59.9898 19.6722C59.4126 18.8174 59.1159 17.7365 59.0995 16.4297H62.971C63.0036 16.9688 63.1479 17.418 63.4039 17.7773C63.6598 18.1367 64.011 18.409 64.4575 18.5941C64.9094 18.7792 65.4321 18.8718 66.0257 18.8718C66.5702 18.8718 67.033 18.7983 67.4142 18.6513C67.8008 18.5043 68.0975 18.3001 68.3044 18.0387C68.5113 17.7773 68.6175 17.4779 68.623 17.1403C68.6175 16.8245 68.5195 16.5549 68.3289 16.3317C68.1383 16.103 67.8443 15.907 67.4468 15.7436C67.0548 15.5748 66.5538 15.4196 65.944 15.2781L64.1961 14.8697C62.7477 14.5375 61.607 14.0012 60.7739 13.2607C59.9408 12.5147 59.527 11.5073 59.5324 10.2386C59.527 9.20407 59.8047 8.29747 60.3655 7.51882C60.9263 6.74017 61.7023 6.13305 62.6933 5.69744C63.6843 5.26184 64.8141 5.04403 66.0828 5.04403C67.3788 5.04403 68.5032 5.26456 69.4561 5.70561C70.4144 6.14122 71.1576 6.75379 71.6858 7.54332C72.214 8.33286 72.4835 9.24763 72.4944 10.2876H68.623ZM83.8066 10.2876C83.7521 9.68868 83.5098 9.22313 83.0796 8.89098C82.6549 8.55339 82.0478 8.38459 81.2583 8.38459C80.7355 8.38459 80.2999 8.45265 79.9514 8.58878C79.603 8.72491 79.3416 8.91276 79.1673 9.15234C78.9931 9.38648 78.9033 9.65601 78.8978 9.96094C78.8869 10.2114 78.9359 10.4319 79.0448 10.6225C79.1592 10.8131 79.3225 10.9819 79.5349 11.1289C79.7527 11.2705 80.0141 11.3957 80.319 11.5046C80.6239 11.6135 80.9669 11.7088 81.3481 11.7905L82.7856 12.1172C83.6133 12.2969 84.3429 12.5365 84.9745 12.8359C85.6116 13.1354 86.1452 13.4921 86.5754 13.9059C87.011 14.3197 87.3404 14.7962 87.5637 15.3352C87.7869 15.8743 87.9012 16.4787 87.9067 17.1484C87.9012 18.2048 87.6344 19.1114 87.1063 19.8683C86.5781 20.6251 85.8185 21.205 84.8275 21.608C83.8419 22.0109 82.6522 22.2124 81.2583 22.2124C79.8589 22.2124 78.6392 22.0027 77.5992 21.5835C76.5592 21.1642 75.7506 20.5271 75.1734 19.6722C74.5962 18.8174 74.2994 17.7365 74.2831 16.4297H78.1546C78.1872 16.9688 78.3315 17.418 78.5874 17.7773C78.8434 18.1367 79.1946 18.409 79.6411 18.5941C80.093 18.7792 80.6157 18.8718 81.2093 18.8718C81.7538 18.8718 82.2166 18.7983 82.5977 18.6513C82.9843 18.5043 83.2811 18.3001 83.488 18.0387C83.6949 17.7773 83.8011 17.4779 83.8066 17.1403C83.8011 16.8245 83.7031 16.5549 83.5125 16.3317C83.3219 16.103 83.0279 15.907 82.6304 15.7436C82.2384 15.5748 81.7374 15.4196 81.1276 15.2781L79.3797 14.8697C77.9313 14.5375 76.7906 14.0012 75.9575 13.2607C75.1244 12.5147 74.7106 11.5073 74.716 10.2386C74.7106 9.20407 74.9883 8.29747 75.5491 7.51882C76.1099 6.74017 76.8859 6.13305 77.8769 5.69744C78.8679 5.26184 79.9977 5.04403 81.2664 5.04403C82.5624 5.04403 83.6868 5.26456 84.6396 5.70561C85.598 6.14122 86.3412 6.75379 86.8694 7.54332C87.3976 8.33286 87.6671 9.24763 87.678 10.2876H83.8066ZM89.9486 22V5.27273H101.612V8.55611H93.9916V11.9865H101.016V15.2781H93.9916V18.7166H101.612V22H89.9486ZM103.597 8.55611V5.27273H117.735V8.55611H112.663V22H108.677V8.55611H103.597Z" fill="#5C61F2"/>
<path d="M14.8849 28.8182H17.5398L20.3438 35.6591H20.4631L23.267 28.8182H25.9219V39H23.8338V32.3729H23.7493L21.1143 38.9503H19.6925L17.0575 32.348H16.973V39H14.8849V28.8182ZM29.4505 39H27.1436L30.6586 28.8182H33.4327L36.9426 39H34.6358L32.0854 31.1449H32.0059L29.4505 39ZM29.3063 34.9979H34.7551V36.6783H29.3063V34.9979ZM46.6845 28.8182V39H44.8251L40.3954 32.5916H40.3208V39H38.1681V28.8182H40.0574L44.4522 35.2216H44.5417V28.8182H46.6845ZM50.218 39H47.9112L51.4261 28.8182H54.2003L57.7102 39H55.4034L52.853 31.1449H52.7734L50.218 39ZM50.0739 34.9979H55.5227V36.6783H50.0739V34.9979ZM65.2086 32.1094C65.139 31.8674 65.0413 31.6536 64.9153 31.468C64.7894 31.2791 64.6352 31.12 64.4529 30.9908C64.274 30.8582 64.0685 30.7571 63.8365 30.6875C63.6078 30.6179 63.3542 30.5831 63.0758 30.5831C62.5555 30.5831 62.0981 30.7124 61.7037 30.9709C61.3126 31.2294 61.0076 31.6056 60.7889 32.0994C60.5701 32.59 60.4608 33.1899 60.4608 33.8991C60.4608 34.6084 60.5685 35.2116 60.7839 35.7088C60.9993 36.206 61.3043 36.5855 61.6987 36.8473C62.0931 37.1058 62.5588 37.2351 63.0957 37.2351C63.5829 37.2351 63.9989 37.1489 64.3436 36.9766C64.6916 36.8009 64.9567 36.554 65.139 36.2358C65.3246 35.9176 65.4174 35.5414 65.4174 35.1072L65.8549 35.1719H63.2299V33.5511H67.4906V34.8338C67.4906 35.7287 67.3017 36.4976 66.9238 37.1406C66.546 37.7803 66.0256 38.2741 65.3627 38.6222C64.6999 38.9669 63.9409 39.1392 63.0858 39.1392C62.1312 39.1392 61.2927 38.9287 60.5701 38.5078C59.8476 38.0836 59.2842 37.482 58.8798 36.7031C58.4788 35.9209 58.2782 34.9929 58.2782 33.919C58.2782 33.0937 58.3975 32.358 58.6362 31.7116C58.8781 31.062 59.2162 30.5118 59.6504 30.0611C60.0846 29.6103 60.59 29.2673 61.1667 29.032C61.7434 28.7966 62.3682 28.679 63.041 28.679C63.6177 28.679 64.1547 28.7635 64.6518 28.9325C65.149 29.0982 65.5898 29.3336 65.9743 29.6385C66.362 29.9434 66.6786 30.3063 66.9238 30.7273C67.1691 31.1449 67.3265 31.6056 67.3961 32.1094H65.2086ZM69.1076 39V28.8182H75.9684V30.593H71.2603V33.0192H75.6154V34.794H71.2603V37.2251H75.9883V39H69.1076ZM77.6799 28.8182H80.3347L83.1387 35.6591H83.258L86.062 28.8182H88.7168V39H86.6287V32.3729H86.5442L83.9093 38.9503H82.4874L79.8525 32.348H79.7679V39H77.6799V28.8182ZM90.4904 39V28.8182H97.3512V30.593H92.6431V33.0192H96.9982V34.794H92.6431V37.2251H97.3711V39H90.4904ZM107.579 28.8182V39H105.72L101.29 32.5916H101.215V39H99.0627V28.8182H100.952L105.347 35.2216H105.436V28.8182H107.579ZM108.97 30.593V28.8182H117.332V30.593H114.215V39H112.087V30.593H108.97Z" fill="white"/>
<rect y="1" width="9" height="42" rx="4.5" fill="#5C61F2"/>
</svg>
