<svg width="19" height="25" viewBox="0 0 19 25" fill="none" xmlns="http://www.w3.org/2000/svg">
<path fill-rule="evenodd" clip-rule="evenodd" d="M8.23535 0.479492C7.97168 0.743164 7.75586 1.18652 7.75586 1.46484C7.75586 1.74316 7.97168 2.18652 8.23535 2.4502C8.49902 2.71387 8.94238 2.92969 9.2207 2.92969C9.87187 2.92969 10.6855 2.11602 10.6855 1.46484C10.6855 0.813672 9.87187 0 9.2207 0C8.94238 0 8.49902 0.21582 8.23535 0.479492ZM1.59472 3.40918C1.33105 3.67285 1.11523 4.11621 1.11523 4.39453C1.11523 5.07539 1.92851 5.85938 2.63476 5.85938C3.33828 5.85938 4.04492 5.13906 4.04492 4.42187C4.04492 3.74336 3.24609 2.92969 2.58008 2.92969C2.30176 2.92969 1.8584 3.14551 1.59472 3.40918ZM14.7871 4.88281C14.0805 5.58945 14.3744 6.88398 15.3232 7.24473C15.9928 7.49922 16.8111 7.1668 17.1055 6.52051C17.4145 5.84258 17.3844 5.59551 16.9213 5.00684C16.4141 4.36191 15.3687 4.30117 14.7871 4.88281ZM7.76172 6.9498C6.41347 7.53457 5.60742 8.76328 5.60742 10.2334C5.60742 11.3289 5.87637 12.0521 6.54765 12.7615C7.32558 13.5838 8.05957 13.8951 9.2207 13.8951C11.3574 13.8951 12.834 12.3988 12.834 10.2334C12.834 9.31113 12.3432 8.13516 11.7246 7.57578C10.7367 6.68242 9.00781 6.40938 7.76172 6.9498ZM16.2437 11.5324C16.0268 11.7723 15.8896 12.2018 15.9012 12.6066L15.9203 13.2812H14.8814C13.9189 13.2812 13.8135 13.3281 13.4482 13.9189C12.6059 15.2822 11.0367 16.0896 9.2207 16.0945C8.07051 16.0979 7.68476 16.0066 6.79121 15.5199C6.1543 15.173 5.49394 14.609 5.14219 14.1113L4.55566 13.2812H2.23633C-0.0755878 13.2812 -0.0826191 13.2826 0.041795 13.7207C0.368943 14.8734 1.39394 16.6275 2.28144 17.5531L3.26367 18.5777V21.7889V25H9.2207H15.1777V21.7268C15.1777 18.8012 15.2146 18.4303 15.525 18.2365C16.1957 17.8176 17.5645 15.8195 18.126 14.4396C18.7822 12.8271 18.8463 11.9178 18.3361 11.4561C17.8297 10.9977 16.69 11.0393 16.2437 11.5324Z" fill="url(#paint0_linear_502_159766)"/>
<defs>
<linearGradient id="paint0_linear_502_159766" x1="9.33725" y1="0" x2="9.33725" y2="25" gradientUnits="userSpaceOnUse">
<stop stop-color="#FE9000"/>
<stop offset="1" stop-color="#FF3500"/>
</linearGradient>
</defs>
</svg>
