<svg width="26" height="32" viewBox="0 0 26 32" fill="none" xmlns="http://www.w3.org/2000/svg">
<path fill-rule="evenodd" clip-rule="evenodd" d="M10.4971 7.94615C10.2709 11.151 9.16475 12.2446 8.20714 10.2106C7.62949 8.98363 7.05058 9.00311 5.36179 10.306C2.05861 12.8542 0.234024 17.7007 1.0029 21.8843C1.4158 24.1313 2.80802 26.7412 4.49181 28.425C9.23639 33.1696 16.7132 33.1946 21.4998 28.4819C25.0888 24.9481 26.2031 19.3578 24.1504 15.1848C23.5513 13.9669 22.9649 13.2025 19.8077 9.52085C19.8077 9.52085 18.9268 8.64132 18.4884 7.98235C16.9918 5.73281 17.4289 3.30489 17.6785 0.933354C17.809 -0.306305 14.7538 -0.510538 12.6858 1.55745C10.7904 3.45291 10.6765 5.39882 10.4971 7.94615ZM11.3291 16.0064C12.3149 17.1095 12.3014 18.7659 11.2986 19.7689C10.0163 21.0513 8.52293 21.0513 7.24055 19.7689C5.95468 18.483 6.44322 15.9687 8.11827 15.2512C9.10733 14.8276 10.5867 15.1756 11.3291 16.0064ZM17.4976 15.3818C17.6631 15.5813 17.761 15.9163 17.7155 16.1262C17.6698 16.3364 15.8597 18.701 13.6929 21.3806C9.73267 26.2789 9.22016 26.7213 8.50396 25.8583C8.07808 25.345 7.9997 25.4636 12.5603 19.7215C16.2754 15.0443 16.8201 14.5655 17.4976 15.3818ZM8.55064 17.4598C8.24059 18.0389 8.64251 18.7639 9.27334 18.7639C9.89818 18.7639 10.3028 18.015 9.98505 17.4468C9.67176 16.8871 8.8532 16.8943 8.55064 17.4598ZM18.6559 21.6097C19.3516 22.3055 19.5047 22.6475 19.5047 23.507C19.5047 24.3664 19.3516 24.7084 18.6559 25.4042C17.9602 26.0999 17.6182 26.2529 16.7587 26.2529C15.8992 26.2529 15.5572 26.0999 14.8614 25.4042C14.1657 24.7084 14.0127 24.3664 14.0127 23.507C14.0127 22.6475 14.1657 22.3055 14.8614 21.6097C15.5572 20.914 15.8992 20.761 16.7587 20.761C17.6182 20.761 17.9602 20.914 18.6559 21.6097ZM16.1523 22.9006C15.9366 23.1165 15.7601 23.3894 15.7601 23.507C15.7601 23.6245 15.9366 23.8974 16.1523 24.1133C16.3682 24.329 16.6411 24.5055 16.7587 24.5055C16.8762 24.5055 17.1491 24.329 17.365 24.1133C17.5807 23.8974 17.7572 23.6245 17.7572 23.507C17.7572 23.3894 17.5807 23.1165 17.365 22.9006C17.1491 22.6849 16.8762 22.5084 16.7587 22.5084C16.6411 22.5084 16.3682 22.6849 16.1523 22.9006Z" fill="url(#paint0_linear_1_2434)"/>
<defs>
<linearGradient id="paint0_linear_1_2434" x1="13.0006" y1="0" x2="13.0006" y2="32" gradientUnits="userSpaceOnUse">
<stop stop-color="#FE9000"/>
<stop offset="1" stop-color="#FF3500"/>
</linearGradient>
</defs>
</svg>
