<svg width="24" height="32" viewBox="0 0 24 32" fill="none" xmlns="http://www.w3.org/2000/svg">
<path fill-rule="evenodd" clip-rule="evenodd" d="M10.6773 0.61375C10.3609 0.95125 10.102 1.51875 10.102 1.875C10.102 2.23125 10.3609 2.79875 10.6773 3.13625C10.9937 3.47375 11.5258 3.75 11.8598 3.75C12.6412 3.75 13.6176 2.7085 13.6176 1.875C13.6176 1.0415 12.6412 0 11.8598 0C11.5258 0 10.9937 0.27625 10.6773 0.61375ZM2.70859 4.36375C2.39219 4.70125 2.1332 5.26875 2.1332 5.625C2.1332 6.4965 3.10914 7.5 3.95664 7.5C4.80086 7.5 5.64883 6.578 5.64883 5.66C5.64883 4.7915 4.69023 3.75 3.89101 3.75C3.55703 3.75 3.025 4.02625 2.70859 4.36375ZM18.5395 6.25C17.6915 7.1545 18.0442 8.8115 19.1828 9.27325C19.9862 9.599 20.9683 9.1735 21.3215 8.34625C21.6923 7.4785 21.6562 7.16225 21.1005 6.40875C20.4918 5.58325 19.2374 5.5055 18.5395 6.25ZM10.109 8.89575C8.49109 9.64425 7.52383 11.217 7.52383 13.0988C7.52383 14.501 7.84656 15.4267 8.65211 16.3347C9.58562 17.3872 10.4664 17.7857 11.8598 17.7857C14.4238 17.7857 16.1957 15.8705 16.1957 13.0988C16.1957 11.9183 15.6067 10.413 14.8645 9.697C13.679 8.5535 11.6043 8.204 10.109 8.89575ZM20.2874 14.7615C20.027 15.0685 19.8625 15.6182 19.8763 16.1365L19.8993 17H18.6527C17.4977 17 17.3711 17.06 16.9328 17.8162C15.922 19.5613 14.039 20.5947 11.8598 20.601C10.4795 20.6052 10.0166 20.4885 8.94437 19.8655C8.18008 19.4215 7.38765 18.6995 6.96555 18.0625L6.26172 17H3.47851C0.704216 17 0.695779 17.0018 0.845076 17.5625C1.23765 19.038 2.46765 21.2833 3.53265 22.468L4.71133 23.7795V27.8897V32H11.8598H19.0082V27.8102C19.0082 24.0655 19.0525 23.5907 19.4249 23.3428C20.2298 22.8065 21.8723 20.249 22.5461 18.4827C23.3336 16.4188 23.4105 15.2547 22.7983 14.6637C22.1905 14.077 20.823 14.1302 20.2874 14.7615Z" fill="url(#paint0_linear_1_2430)"/>
<defs>
<linearGradient id="paint0_linear_1_2430" x1="11.9996" y1="0" x2="11.9996" y2="32" gradientUnits="userSpaceOnUse">
<stop stop-color="#FE9000"/>
<stop offset="1" stop-color="#FF3500"/>
</linearGradient>
</defs>
</svg>
