<svg width="32" height="32" viewBox="0 0 32 32" fill="none" xmlns="http://www.w3.org/2000/svg">
<path d="M0 2C0 0.89375 0.89375 0 2 0H30C31.1063 0 32 0.89375 32 2C32 3.10625 31.1063 4 30 4V28C31.1063 28 32 28.8937 32 30C32 31.1063 31.1063 32 30 32H19V29C19 27.3438 17.6562 26 16 26C14.3438 26 13 27.3438 13 29V32H2C0.89375 32 0 31.1063 0 30C0 28.8937 0.89375 28 2 28V4C0.89375 4 0 3.10625 0 2ZM6 7V9C6 9.55 6.45 10 7 10H9C9.55 10 10 9.55 10 9V7C10 6.45 9.55 6 9 6H7C6.45 6 6 6.45 6 7ZM15 6C14.45 6 14 6.45 14 7V9C14 9.55 14.45 10 15 10H17C17.55 10 18 9.55 18 9V7C18 6.45 17.55 6 17 6H15ZM22 7V9C22 9.55 22.45 10 23 10H25C25.55 10 26 9.55 26 9V7C26 6.45 25.55 6 25 6H23C22.45 6 22 6.45 22 7ZM7 12C6.45 12 6 12.45 6 13V15C6 15.55 6.45 16 7 16H9C9.55 16 10 15.55 10 15V13C10 12.45 9.55 12 9 12H7ZM14 13V15C14 15.55 14.45 16 15 16H17C17.55 16 18 15.55 18 15V13C18 12.45 17.55 12 17 12H15C14.45 12 14 12.45 14 13ZM23 12C22.45 12 22 12.45 22 13V15C22 15.55 22.45 16 23 16H25C25.55 16 26 15.55 26 15V13C26 12.45 25.55 12 25 12H23ZM20.5 24C21.3312 24 22.0187 23.3188 21.8125 22.5125C21.15 19.9188 18.8 18 16 18C13.2 18 10.8438 19.9188 10.1875 22.5125C9.98125 23.3125 10.675 24 11.5 24H20.5Z" fill="url(#paint0_linear_1_2426)"/>
<defs>
<linearGradient id="paint0_linear_1_2426" x1="16" y1="0" x2="16" y2="32" gradientUnits="userSpaceOnUse">
<stop stop-color="#FE9000"/>
<stop offset="1" stop-color="#FF3500"/>
</linearGradient>
</defs>
</svg>
