<svg width="26" height="32" viewBox="0 0 26 32" fill="none" xmlns="http://www.w3.org/2000/svg">
<path fill-rule="evenodd" clip-rule="evenodd" d="M6.86641 0.395992C6.78281 0.613762 6.71447 1.51488 6.71447 2.39848V4.00497H12.8308C16.5437 4.00497 19.224 4.1096 19.6518 4.2713C21.4185 4.93888 22.7198 7.02247 22.7289 9.19892L22.7344 10.5131H24.2412H25.7484L25.6805 5.31911L25.6129 0.125155L21.7957 0.0560696C18.7214 0.000500623 17.9785 0.0528156 17.9785 0.325404C17.9785 0.870331 16.8738 1.75218 16.1912 1.75218C15.5527 1.75218 14.4741 0.838041 14.4741 0.296869C14.4741 0.081351 13.4536 0 10.7462 0C7.57779 0 6.99557 0.0593237 6.86641 0.395992ZM0.321032 6.07004C0.255201 6.24225 0.23067 12.1276 0.266465 19.1488L0.331545 31.9146L9.7182 31.9827C16.8042 32.0343 19.248 31.9752 19.6893 31.7414C20.9654 31.0653 20.9822 30.8989 20.9822 18.8945C20.9822 11.1624 20.8961 7.55864 20.7026 7.17992C19.9669 5.74163 20.1742 5.76866 9.89817 5.76266C2.55906 5.7584 0.414148 5.82724 0.321032 6.07004ZM13.1077 11.1055C16.8838 12.864 17.7492 17.6827 14.8155 20.6166C12.3715 23.0606 8.70394 23.0041 6.28919 20.4849C3.57182 17.6502 4.44015 12.9428 8.00808 11.1646C9.69918 10.3221 11.3833 10.3025 13.1077 11.1055ZM22.7344 20.15V28.2851H23.9359C24.5967 28.2851 25.2725 28.15 25.4377 27.9848C25.6585 27.764 25.7381 25.6096 25.7381 19.8496V12.0149H24.2362H22.7344V20.15ZM7.87416 13.0347C7.14876 13.6054 6.46416 14.7526 6.46416 15.3976C6.46416 15.7007 6.66216 15.7818 7.2594 15.7228C8.00958 15.6489 8.07341 15.5606 8.3888 14.1663C8.57253 13.3536 8.68241 12.648 8.6331 12.5984C8.58354 12.5491 8.24212 12.7453 7.87416 13.0347ZM12.4716 12.6357C12.4716 12.7115 12.6591 13.4474 12.8881 14.2715C13.2939 15.7313 13.3267 15.7696 14.1665 15.7696C14.8496 15.7696 14.9968 15.6875 14.8764 15.3736C14.7928 15.1558 14.7244 14.883 14.7244 14.7671C14.7244 14.4467 13.4811 13.0382 12.9452 12.7513C12.6846 12.6119 12.4716 12.5598 12.4716 12.6357ZM10.2499 13.4587C10.1194 13.7023 9.93397 14.3218 9.8376 14.8354L9.66238 15.7696H10.5665C11.5845 15.7696 11.6544 15.5661 11.1805 13.9839C10.8626 12.9233 10.6121 12.7819 10.2499 13.4587ZM6.46591 17.6937C6.46892 18.5338 8.2276 20.5976 8.61233 20.2128C8.67465 20.1505 8.57078 19.4912 8.38154 18.748C8.0644 17.5035 7.97504 17.3903 7.25064 17.3183C6.62861 17.2562 6.46441 17.3348 6.46591 17.6937ZM9.7182 17.6096C9.7182 18.0749 10.2406 19.5981 10.4977 19.8814C10.7375 20.146 11.4704 18.5631 11.4704 17.7801C11.4704 17.3656 11.3082 17.2714 10.5943 17.2714C10.0253 17.2714 9.7182 17.3901 9.7182 17.6096ZM13.0814 17.9598C12.9985 18.3385 12.8271 18.9761 12.7002 19.3771C12.4043 20.312 12.5545 20.4424 13.3367 19.93C13.8631 19.5851 14.9747 17.8727 14.9747 17.4066C14.9747 17.3323 14.5827 17.2714 14.1034 17.2714C13.3562 17.2714 13.2105 17.3696 13.0814 17.9598ZM15.8223 24.9132C16.3006 25.3913 16.0904 25.995 15.3852 26.1682C15.0906 26.2406 12.778 26.2679 10.2459 26.2286C6.27117 26.1672 5.60609 26.1004 5.37931 25.7405C5.18858 25.4378 5.20685 25.2143 5.44539 24.927C5.92749 24.3462 15.2431 24.334 15.8223 24.9132Z" fill="url(#paint0_linear_1_2438)"/>
<defs>
<linearGradient id="paint0_linear_1_2438" x1="12.9992" y1="0" x2="12.9992" y2="32" gradientUnits="userSpaceOnUse">
<stop stop-color="#FE9000"/>
<stop offset="1" stop-color="#FF3500"/>
</linearGradient>
</defs>
</svg>
